<?xml version="1.0" encoding="utf-8"?>
<!-- Generator: Adobe Illustrator 19.1.0, SVG Export Plug-In . SVG Version: 6.00 Build 0)  -->
<!DOCTYPE svg PUBLIC "-//W3C//DTD SVG 1.1//EN" "http://www.w3.org/Graphics/SVG/1.1/DTD/svg11.dtd">
<svg version="1.1" id="Layer_1" xmlns="http://www.w3.org/2000/svg" xmlns:xlink="http://www.w3.org/1999/xlink" x="0px" y="0px"
	 viewBox="0 0 3816 540" style="enable-background:new 0 0 3816 540;" xml:space="preserve">
<style type="text/css">
	.st0{fill:#FFFFFF;}
</style>
<g>
	<path class="st0" d="M1177.3,362.5c-22.7,30.4-47.2,49.4-70.9,61.1c-26.8,13.3-52.4,17.2-73.2,17.2c-2.4,0-4.8-0.3-7.2-0.4
		c-58.1-2.7-110.7-37.3-140.5-86.1c-16-26.1-25.5-56.3-25.5-87.8c0-32.8,9.5-63.6,25.5-90.2c29.5-49,81.6-83.1,140.2-85.5
		c2.3-0.1,4.5-0.4,6.8-0.4c9,0,40,1.4,73.7,16.7c23.8,10.8,49,28.6,68.7,58.1l3.6,5.4h74.1l-7.1-16.9
		c-13.6-32.3-62.1-91.2-139.4-115.9c-9.1-2.9-18.6-5.5-28.5-7.3c-14.1-2.7-29-4.3-44.6-4.3H897.1v62.5H792.6v416.1l241.3,0.1
		c22.5,0,47.4-3.7,72.6-11.8c52.2-16.8,105.5-53.1,140.6-117.4l9.8-18H1181L1177.3,362.5z"/>
	<path class="st0" d="M378.2,89.9c-8.3-7.1-17.4-13.8-27.2-19.9C313,45.3,254.7,26.2,195.5,26.2H49.3v487h146.2
		c59.3,0,117.5-14.9,155.8-39.8c20.4-13,36.9-27.8,50.4-43.3c55.7-63.6,59.2-139.5,59.2-157.1C460.9,215.8,438.6,141.4,378.2,89.9z"
		/>
	<path class="st0" d="M2207.5,82.3c-61.9,0-116.8,30.8-150.7,78v216c34.2,46.4,89.5,77.3,150.7,77.3c103.1,0,187-83,187-185
		C2394.5,165.8,2310.6,82.3,2207.5,82.3z"/>
	<polygon class="st0" points="1979,513.1 1979,139.6 1725.9,513.1 	"/>
	<polygon class="st0" points="1972,26.2 1739.9,26.2 1739.9,382 	"/>
	<polygon class="st0" points="2709.5,26.2 2466.3,26.2 2709.5,387.2 	"/>
	<polygon class="st0" points="2461.7,512.7 2711.7,512.7 2461.7,141.9 	"/>
	<path class="st0" d="M3517.9,26.2c-55.6,0-113.3,21.3-159,58.5c-52.4,42.6-89.2,107.1-89.2,188.2c0,78.5,41,149.6,103,193.9
		c41.2,29.5,91.6,47.1,145.3,47.1c137.2,0,248.8-109.2,248.8-243.4C3766.7,136.2,3655.1,26.2,3517.9,26.2z"/>
	<path class="st0" d="M1317.9,26.2v205.8h-211.4v-82c-31.9-20.2-65.2-21.7-73.6-21.7l-1.5,0.1l-3.8,0.3
		c-70.1,3-129.3,66.1-129.3,137.8c0,69.2,60.6,132.8,129.7,136l5.5,0.4c26.6,0,51.1-7.8,73.2-23.2c0-38.4,0-72.4,0-81
		c14.8,0,211.4,0,211.4,0v214.5h14.5l336-487H1317.9z"/>
	<polygon class="st0" points="1407,513.1 1665.1,513.1 1665.1,146.1 	"/>
	<g>
		<path class="st0" d="M629.1,88.7V26.2H369.9l28,16.5c88.6,59.2,120.6,157.1,120.6,230.3c0,20.9-4.4,113.9-74.8,188.9
			c42.9,46.8,102.3,51.2,122.6,51.2c25.2,0,110.5-6.7,150-92.7c10.2-22,16.3-50.2,17.9-82.2c0-112,0-249.6,0-249.6H629.1z"/>
	</g>
	<g>
		<path class="st0" d="M3426.6,363.4l-3.7,5c-49.2,65.7-106.8,79.5-146.4,79.5c-93.8,0-176.1-82.8-176.1-177.2
			c0-97.1,80.3-179,175.4-179c15.7,0,96.4,3.6,144.9,76l3.6,5.5h75.3l-7.2-17.1c-17.7-42.3-93.9-130-216-130
			c-137.2,0-244.7,106.8-245.4,242.8L2867.2,26.2h-89.7v487h73V370.5h167.1l100,142.7c0,0,119.5,0,159.5,0
			c70.2,0,163.9-34.5,216.7-131.4l10-18.3H3426.6z M2850.4,317.4V114.9L2987,317.4H2850.4z"/>
	</g>
</g>
</svg>
