<svg id="Layer_1" data-name="Layer 1" xmlns="http://www.w3.org/2000/svg" xmlns:xlink="http://www.w3.org/1999/xlink" viewBox="0 0 226.43 80.91"><defs><style>.cls-1{fill:url(#linear-gradient);}.cls-2{fill:url(#linear-gradient-2);}.cls-3{fill:url(#linear-gradient-3);}</style><linearGradient id="linear-gradient" x1="19.57" y1="230.96" x2="245.99" y2="230.96" gradientUnits="userSpaceOnUse"><stop offset="0" stop-color="#2bb673"/><stop offset="0.42" stop-color="#00aab3"/><stop offset="0.98" stop-color="#004a50"/></linearGradient><linearGradient id="linear-gradient-2" x1="51.81" y1="268.65" x2="51.81" y2="218.58" gradientUnits="userSpaceOnUse"><stop offset="0" stop-color="#f9ed32"/><stop offset="0.81" stop-color="#2fc5a7"/><stop offset="1" stop-color="#00bbc3"/></linearGradient><linearGradient id="linear-gradient-3" x1="78.76" y1="269.58" x2="78.76" y2="223.1" xlink:href="#linear-gradient-2"/></defs><title>Untitled-1</title><path class="cls-1" d="M76.74,207.56A31.92,31.92,0,0,0,48.59,224.4l-.15-.24a33.26,33.26,0,0,0-3.64-6s-3.57,5.92-3.8,16.51c-.18,8.06,3,25.51,4.28,32.18l0,1h0l-3.13.26c-.08-.56-.16-1.11-.23-1.67s-.1-1.37-.16-2-.1-1.16-.14-1.74c0-.2,0-.42,0-.63,0-.78,0-1.56-.11-2.33,0-.55-.24-1.09-.26-1.64,0-.74.07-1.49.07-2.23,0-.44-.08-.89-.12-1.33a11.26,11.26,0,0,1-.14-3.12,4.2,4.2,0,0,0-.11-.77c-.05-.86-.07-1.72-.11-2.58,0-.58-.06-1.16-.08-1.73,0-.18,0-.37,0-.55,0-.75-.11-1.5-.14-2.26,0-.45.07-.9.06-1.34a6.38,6.38,0,0,0,0-1.31,14.44,14.44,0,0,1-.08-2.19c0-.53-.07-1-.11-1.58,0,0,0-.05,0-.08a9.76,9.76,0,0,0-.08-3.05,6.69,6.69,0,0,1,.07-1c0-.45,0-.89,0-1.32a7.19,7.19,0,0,0,0-1.8c-.18-.63,0-1.25-.16-1.85a.81.81,0,0,1,0-.51,6.54,6.54,0,0,0,.08-2.25c0-.52-.14-1-.18-1.57a3.34,3.34,0,0,1,.08-.83,5.43,5.43,0,0,0-.07-2.16,3.39,3.39,0,0,1-.06-.72l.16.13.06,0h0l.05.13s.18.46.18.44.1.2.12.18a.58.58,0,0,0,0-.2l-.1-.45-.05-.15-.16-.47.74.54c.06.11.12.18.13.16s0-.07,0-.18.07,0,.07,0,0-.05-.09-.12l0,0c0-.16-.1-.33-.1-.33h0c.13.08.57.5.62.49l0,0h0c-.17-.15-.41-.64-.6-.76-.34-.21,0-.2.31,0s.73.43,1.17.68l0,0c-.1-.21-.68-.64-.72-.88.14.1.75.49,1,.63,0-.07-.42-.4-.6-.68-.06-.1.28.18.52.29,0,0,.43.13.45.12-.1-.2-.57-.31-.68-.52a2.36,2.36,0,0,0,.9.25c-.14-.07-.68-.4-.79-.46s.14,0,.14-.05l.53.1s0,0,0,0l-.68-.23v0h.67l-.08-.07-.64-.1.35,0-.53-.1v0l.29,0v0l-.44,0,.25-.06v0l-.88.06a.13.13,0,0,0,0-.06l1-.24a.36.36,0,0,1-.07-.1l-1.25.19,0,0,.79-.24a.06.06,0,0,1,0,0l-.82.15s0,0,0,0l.53-.24a.14.14,0,0,0,0-.06l-1,.34s0,0,0-.06l1-.43a.14.14,0,0,1,0-.06l-1.17.41,0,0,.53-.29,0-.06-.74.34-.11-.14.27-.2.12.08,0-.05-.1-.09.33-.24.22.12,0-.1a3,3,0,0,0-.32-.3l.13-.12,0,0-.16.12a5.13,5.13,0,0,1-.93-.74l.09-.11,1.24.58,0-.07L40,215.37a1.09,1.09,0,0,1,.08-.15l1,.45a.57.57,0,0,1,0-.14h0s0,0,0-.05a1.09,1.09,0,0,0-.09-.23,3.85,3.85,0,0,0-.26-.34l-.71-.73,0-.06.7.5c-.13-.38-.57-.51-.74-.86l.82.41-.08-.23-.79-.32a.14.14,0,0,0,0-.06l.94.22a1.8,1.8,0,0,1-.2-.19l.11.08c.1.08.19.12.18.09s0-.07-.12-.16-.32-.33-.32-.33l-.12-.11-.34-.31v0l1.13.64-.38-.5,0,0L41,213l0,0-.56-.64.07,0,.15.09.22.1c.11.06.2.09.2.06a.68.68,0,0,0-.15-.14l-.24-.18-.12-.1-.13-.09-.26-.19,0-.14v0l.41.21.13.06.44.19c.11.05.21.08.2.05s0-.06-.14-.13-.4-.26-.4-.26l-.15-.07c-.15-.07-.3-.14-.44-.22a.29.29,0,0,0,0-.09,2.8,2.8,0,0,0,.06-.28l.13.06.21.09c.12.05.21.08.21.05a.54.54,0,0,0-.15-.13l-.38-.25,0-.3.48.11c-.17-.18-.32-.36-.48-.52a2.67,2.67,0,0,0,0-.4v-.16a2.46,2.46,0,0,1,1.49-.23l-.45.3.5-.07-.32.27a.08.08,0,0,0,0,0l.36-.16-.31.79.06,0,.33-.52.08.05c0,.09-.09.18-.14.3l.21-.06-.18.39.31-.25c-.38.46.13.75.15,1.25l.35-.54.07.06c0,.37-.07.74-.1,1.11l0,0,.5-.94.09,0-.21.68,0,0,.43-.73.1.06c-.08.16-.16.32-.29.56l.28-.2q-.1.47-.21.9l.08,0,.24-.57,0,0c0,.11,0,.22-.06.3l.57-.45.06.06c0,.12-.07.24-.11.36l0,0,.21-.31,0,0-.21.56a.12.12,0,0,1,.05.05l.26-.36.07.06-.3.49.5-.33.09,0c0,.14-.11.27-.17.41l.47-.19c-.18.24-.31.41-.43.59,0,0,0,0,0,0l.69-.48,0,.05-.59.75,0,0,.73-.45.06.06-.39.45h.21l-.31.73.06,0c.16-.28.31-.57.47-.86l.07,0c-.12.41-.25.82-.41,1.34l.55-.33c0,.09,0,.15,0,.23l.68-.47,0,.06-.49.65.3-.12-.22.64,0,0,.37-.74h0c0,.21-.11.42-.16.63l0,0,.47-1,.15.08L47,216.3l.28-.25.05,0-.24.4s0,0,0,0l.4-.39.05.05-.62.8.58-.29a2,2,0,0,1,0,.26l.69-.69,0,0-.46.67,0,0,.31-.21-.57.91,0,0,.15-.12.06,0c-.11.17-.21.34-.31.51l.06.05,1.12-1.38.05,0L48,218.28l.25-.19,0,0-.29.49.06,0,.9-1.18-.45,1.1.05,0,.43-.66,0,0-.16.39.07,0,.49-.89a4.67,4.67,0,0,1,.43-1.8v0h0l.15-.26c-.14-.36-.28-.73-.44-1.13l.29.19.05-.06-.63-.65.63.2s-.87-.66-.85-.71c.45.11,1.37.59.85.23,0,0-1.46-.79-1.45-.82.28.15.56.31.85.43.07,0,.18,0,.27-.07s-1.14-.57-1.17-.65,1.21.38,1.33.34l-1.52-.59s0-.06,0-.08l1.31.32,0-.08-.75-.37v-.05l.52.13a.64.64,0,0,0,0-.07l-1.6-.48c.39.1,1.33.29,1.69.37a2.67,2.67,0,0,0-.09-.26c-.17,0-.79-.34-1.07-.41,0,0,1.71.11,1.72.07l-1.23-.33s-.61-.12-.61-.14c.5.05,1.1-.12,1.6-.07,0,0-.27-.11-.27-.12-.5,0-1.71-.18-1.89-.18v0l1.14-.09v-.07H47.6v-.07l.83-.05V210l-1.11-.12c0-.07-.55,0-.55-.09l1.06-.14s0-.08-.06-.09c-.45-.06-2-.65-2.65-.86a6.33,6.33,0,0,0-1.74-.35l-.06,0a2.18,2.18,0,0,0-1.61,0,1.17,1.17,0,0,0-.27.15v0h-.1s-.08,0-.2,0a1.45,1.45,0,0,0-.29.11.69.69,0,0,0-.15.07l-.1.07-.25.1,1.44-1.78.2.17c0-.08,0-.18.05-.27h.06c.08.29.16.58.23.87h0l-.1-1.13.7,1.22.07,0-.24-.9,0,0c.07.12.15.24.22.37l0,0c0-.21-.09-.42-.14-.63l.05,0,.36.86.12,0-.24-.9.06,0v0l.42.81.06,0-.24-.68.06,0,.29.5,0,0c-.13-.3-.27-.61-.4-.92l.06,0c.22.27.44.55.67.82l0,0c-.13-.23-.26-.46-.38-.69l.06-.06.48.6.07-.06a2.55,2.55,0,0,1-.13-.29l.25-.15c.05.09.13.21.21.33l.11-.07-.32-.82.47.47.05,0c-.05-.1-.11-.19-.18-.32l.74.75.06,0c-.19-.29-.38-.58-.56-.87l.07-.06c.13.18.27.35.41.53l.1-.08-.5-.72.08-.07.67.8,0,0c-.14-.23-.28-.47-.44-.72l.57.18-.2-.37,0,0L47,206l-.3-.49.32.15-.38-.5,0-.05.79.71s0,0,0-.05l-.71-.93,0,0,1.17.84a.27.27,0,0,1,.08-.07l.34.34.1.1.37.31c.1.08.19.13.19.1s0-.07-.11-.17-.3-.34-.3-.34l-.12-.12-.34-.34.16-.14-.76-.68.1-.1.87.81,0,0-.63-.73,0,0,1.41,1.25h0l.23.21.36.31c.1.08.18.14.18.11a.56.56,0,0,0-.1-.17,3.7,3.7,0,0,0-.3-.36l-.11-.1-1.44-1.65,0,0,1.6,1.44,0,0c-.06-.1-.14-.2-.25-.36l.35.1h0l.1.1.38.29c.1.07.19.12.19.09a.67.67,0,0,0-.11-.16l-.24-.26,0,0-.75-.88,0-.06,2,1.46h0l-.39-.37.13.08.19.13c.1.07.19.12.19.09a.58.58,0,0,0-.12-.16c-.13-.14-.34-.32-.34-.32l-.13-.09-.46-.34-.35-.3c.06-.06.18.12.24.06s-.11-.39.83.5c.07,0,.77.67.84.66s0,0-.05-.05v0c-.21-.19-.52-.82-.77-1-.43-.28,0-.26.39,0s1,.55,1.51.87h.06c-.12-.27-.88-.83-.93-1.15a13.11,13.11,0,0,0,1.32.82c0-.09-.54-.52-.77-.87-.07-.13.36.22.68.36,0,0,.55.17.58.16-.13-.26-.74-.4-.88-.66a3,3,0,0,0,1.15.31l-1-.59.18-.06.69.13a.14.14,0,0,1,0-.06l-.88-.29a.06.06,0,0,1,0,0h.85l-.1-.09-.82-.13.45-.07-.68-.12v-.05l.37-.07v0l-.57,0,.32-.09v0l-1.13.07s0-.05,0-.07l1.34-.31-.1-.13-1.61.24v0l1-.3s0-.05,0-.06l-1,.19a.08.08,0,0,0,0-.05l.69-.32,0-.07-1.23.43,0-.08,1.34-.55,0-.08-1.51.53s0,0,0,0l.67-.38,0-.07-1.6.74a.56.56,0,0,0,0-.08l1.49-1.1s0,0,0,0l-.8.41,0,0,.87-.79,0-.06L50,201.9l.66-.76,0-.07a.66.66,0,0,0-.24.11,3.27,3.27,0,0,1-1.27.75,9.46,9.46,0,0,0-2,1c-.89.62-1.94.87-2.83,1.47-.28.19-.54.4-.82.59a8.7,8.7,0,0,1-.9.59,4.31,4.31,0,0,0-1.41,1.64c-.35.57-.69,1.15-1,1.72-.11.18-.25.27-.4.08.07-.19.13-.37.2-.55l0,0a.16.16,0,0,1,0-.07l.39-.08c0-.09-.14-.14-.23-.19l0-.06.13-.2c.06-.11.13-.2.12-.2s.12-.18.09-.18a.58.58,0,0,0-.16.12,3.56,3.56,0,0,0-.31.35l0,.05c0-.07,0-.15,0-.28l-.3.28a1.56,1.56,0,0,1-.13-.38c0-.69,0-1.38,0-2.06,0-.43.22-.5.59-.28s.51.36.81.57c0-.14-.06-.23-.09-.37l.52.12c-.12-.14-.17-.22-.27-.35l.69.26s0-.06,0-.09l.61-.11c-.44-.11-.87-.2-1.1-.64l.39.19a.21.21,0,0,0,0-.06l-.43-.39c.14-.2.24-.44.58-.29a3.56,3.56,0,0,0,.93.26l-1-.42,1,.09,0-.1-.53-.38a.13.13,0,0,0,0-.06l1.31.36,0-.08-.73-.43s0,0,0,0l.56.15c-.07-.15-.13-.26-.2-.38l.4.06,0,0-.42-.23.65.09-.38-.48.82.1v-.06l-.81-.31v-.06l.4,0-2.28-.74s0-.07,0-.11h3l-1.19-.2v0h.67v-.08l-1.57-.13v0H44a.25.25,0,0,1,0-.08l-.53,0a.13.13,0,0,1,0-.06H45v0l-1.85-.16,2.71-.26s0,0,0-.06H43.77v0h1.38V200l-.76-.06v-.09l.67-.09L43,199.51v-.07h1.62v-.07l-2-.13,2-.17s0,0,0-.07l-.22-.09v-.06l1.05.09a.37.37,0,0,1,0-.11l-2.56-.17v-.07h2.24v-.12l-1.31-.21,1.36-.35-1.61-.14a.15.15,0,0,0,0-.07l2.75.18v-.08l-2.55-.21a.49.49,0,0,0,0-.12l3.55.34a.13.13,0,0,1,0-.06l-1.3-.2v-.05l1.3.06v-.05l-3.26-.31v0l3.38.14v0l-.94-.15.5-.05v0l-1.1-.15v0l.4-.05v0l-.81,0v0h2v-.05h-3a10.25,10.25,0,0,1,3.22-.06v-.12H44.86v-.16H48a.57.57,0,0,1,0-.13l-.35,0-1-.16h1.79V196H46.23a1,1,0,0,1,0-.17l2.93.18a11,11,0,0,0-3.24-.27s0-.07,0-.11l3.32.15c-.11,0-.32-.1-.53-.14a5.35,5.35,0,0,0-.7-.08,2.38,2.38,0,0,1-.69-.09h1.43v-.08h-1.4v-.09h1.8v-.09h-2s0,0,0-.05l1.34-.15v0h-.83v-.08h1.51v-.09H47.85v0l1.34-.13v-.09l-1.45.09s0,0,0-.06l.6-.23-.27-.07.41-.24v0l-.38.13a.3.3,0,0,1,0-.08l1.54-.79a5.93,5.93,0,0,0-2.68,1.61,1,1,0,0,0-.08-.14l2.26-1.63-.3,0a4.93,4.93,0,0,0-1.65,1.2c-.16.18-.34.33-.51.49l1.57-1.65h-.06l-1,.71.62-.69h-.17l-.42.42-.42.39.61-.8h-.14l-.73.86,0,0c.19-.27.38-.55.58-.82H46.9c-.17.19-.34.39-.5.59l0,0,.3-.55h-.15c-.34.66-.68,1.33-1,2l-.06,0,.81-1.94-.13,0-.63,1.24,0,0,.48-1.2h-.1c-.12.28-.25.56-.38.85l-.05,0c.06-.26.11-.52.17-.78l-.1,0c-.16.49-.33,1-.5,1.48l-.08,0c.09-.29.18-.58.25-.88a5.07,5.07,0,0,0,.09-.54h-.08c-.13.43-.25.86-.38,1.29h-.06c0-.23,0-.45,0-.67h0c-.08.38-.15.75-.23,1.13h0c0-.53,0-1.06.08-1.59l-.13,0-.18,2.29c-.16-.72.11-1.48-.06-2.22l-.14.05.06,1.3H44l-.12-1.26-.09,0v1.69h0c-.08-.53-.15-1.07-.23-1.6l-.1,0c.05.69.11,1.37.16,2.05h-.06c-.09-.66-.18-1.32-.28-2l-.09,0,.21,1.68h-.09c0-.31-.1-.63-.16-.94a3.66,3.66,0,0,0-.17-.65l-.06,0,.18,1.09-.07,0c-.08-.35-.15-.7-.23-1.05l-.08.05c.1.74.19,1.48.29,2.22l-.08,0c-.14-.6-.27-1.21-.4-1.8h0c.1.69.21,1.39.32,2.09h0c-.28-.64-.56-1.27-.85-1.91,0-.06-.09-.1-.14-.16s-.12-.34-.16-.48l-.6.91-.13-.08.36-1.44-.07-.05c-.34.42-.67.84-1,1.25h0l1-1.67-.06-.05-.28.34c.13-.3.24-.58.35-.85l-.09-.14c-.62,1.08-1.23,2.17-1.85,3.26l-.1-.06,1.8-3.39-.16-.18-1.4,2.14c.26-.56.48-1,.7-1.48s.3-.61.43-.93l0,0-1.06,2h0c.31-.73.62-1.46.92-2.19l-.1-.09-.94,2.14-.08,0c.25-.76.5-1.51.74-2.27l-.05,0-.45,1.1h0l.3-1.27-.11-.07L39,192.58H39c.09-.5.17-1,.26-1.48l-.12-.08c-.14.66-.28,1.33-.41,2h-.06l.24-2.11-.09-.06c-.1.78-.2,1.55-.29,2.33h-.06c.06-.81.12-1.61.17-2.42l-.08-.05c0,.43-.09.86-.14,1.29h-.06l-.09-1.2h0v1.62h-.05c-.06-.51-.12-1-.17-1.54h0v.71h-.08c0-.24-.08-.48-.13-.76,0,.11,0,.19-.07.31l-.23-.6-.07,0c.06.22.12.45.17.67l0,0-.36-.74-.06,0,.31.83-.53-.28-.07,0,.36.62a2.91,2.91,0,0,1,.35.68l-.76-1-.07.06c.28.36.54.72.81,1.09l-.05.05c-.25-.3-.51-.59-.76-.88l-.06,0,.63.87-1-.61,0,0,.68.8-.06.09-.67-.43a.22.22,0,0,0-.21,0s0,.14,0,.21,0,.07.06.1a10.78,10.78,0,0,0,1.61,2,.42.42,0,0,1,.11.15c-.58-.44-1.06-1-1.66-1.42l-.09.11.52.47-.07.08-.41-.3,0,0,.76.72a.21.21,0,0,1,0,.06l-.6-.43,0,0,2.64,2.49a.27.27,0,0,1-.07.08l-2.42-1.92-.06.08.5.62-.07.07-.36-.08c.17.26.29.46.42.67s.28.53.43.84c-.22-.22-.44-.42-.65-.62l0,.05L37.64,198a.1.1,0,0,0,0,.05l-.81-.77,0,0,.51.58c0,.13,0,.21,0,.3l.07.06-.06.24-.41,0-.05,0,.05,0h0l0,.07a3.39,3.39,0,0,0,.29.53,1.47,1.47,0,0,0,.32.29l-.07.09L37,199.3l-.06.06.8.78-.43-.12.31.31-.53,0,.84.47h-.81v0L38,201s0,.09,0,.14l-.79.1v.05h.71v.05l-1,.08a42.27,42.27,0,0,0-3.23-5h0c-.18-.25-.35-.49-.53-.72l-.42-.52-.32-.35c-.09-.09-.16-.15-.17-.12a.51.51,0,0,0,.09.17,4.05,4.05,0,0,0,.25.39l.11.15.14.21-.06.13h0a7.92,7.92,0,0,0-.61-.69c-.19-.18-.37-.37-.57-.53l-.31-.25-.16-.13-.21-.14-.2-.12c-.1-.06-.19-.09-.2-.07s-.14-.07-.14,0,.07.14.23.32l.41.45.21.23.23.23c.26.27.51.54.75.82l.22.26a2.62,2.62,0,0,0-.3-.28,4.82,4.82,0,0,0-.43-.36,6.06,6.06,0,0,0-.95-1.07l-.1-.09s-.39-.32-.38-.3-.18-.13-.18-.1,0,.07.11.16.31.35.31.35h0l.39.47-.29-.19c-.06-.06-.1-.1-.1-.09s-.18-.14-.18-.11v0l-.05,0-.84-.47c-.34-.2-.61-.29-.12.15.28.26.72.59.72.59l.28.18c.27.18.55.37.81.56l0,0-.31-.07-.26,0-.26-.21v0l-.32-.32s-.38-.33-.37-.31-.19-.12-.19-.09,0,.07.12.15.3.35.3.35l.31.32,0,0-.16,0-.12-.1-.39-.27c-.11-.07-.2-.12-.2-.09s0,.07.13.15a1.45,1.45,0,0,0,.17.18c-.26-.08-.51-.15-.78-.21l-.05.1c.06.05.12.12.19.17.31.23.76.13,1,.54a.52.52,0,0,0,.17.16l-.39,0c-.41,0-.68,0,0,.2.2.06.46.12.65.16h.09l.17,0,.15,0v0l-.51.19c-.09,0-.16-.06-.15,0l.06.07-.47.18,0,.06.31,0a1.07,1.07,0,0,0,.33.16,5.8,5.8,0,0,0,.59.19l.09,0h0l.53.3a6.43,6.43,0,0,0,1.12.46l.3.08h0a.08.08,0,0,0,.05-.05,3.21,3.21,0,0,1,.53.15l-.79,0-.63-.26-.13-.05-.46-.15c-.13,0-.22,0-.21,0s0,0,.16.11.42.21.42.21l.15.06c.29.11.57.23.85.36l.27.25c-.32-.17-.66-.34-1-.49s-.4-.18-.61-.27l-.3-.13-.19-.07-.46-.15c-.12,0-.22-.05-.21,0s.06.05.17.11l.41.21.17.07.31.13.62.27c.4.19.8.38,1.19.6l.2.12a.25.25,0,0,1,0,.07,2.42,2.42,0,0,1-.46-.06l-2.86-1a.25.25,0,0,0-.2,0l.12.05v.05l-.66-.08V198l.47.13a.13.13,0,0,1,0,.06l-1.07-.06v.07l1.79.19v.05H29.14a.22.22,0,0,0,0,.08h1.8v.09h-1v.05l1.37.12v0l-2.15.17v.12h2.23v0l-1.86.12a.13.13,0,0,0,0,.06l3.06.25-1.95.12v0h.77a.22.22,0,0,0,0,.08l-.73.07v0h1.73c-.45,0-.79.06-1.13.12a7,7,0,0,0-1,.24l2.07-.18v.07l-1.26.26s0,0,0,.05h1.63l-1.17.21v.05l.35.05-.38.15s0,0,0,0l1.36-.13a.09.09,0,0,1,0,0l-1.13.21v.07l1.44-.09v.07l-1.19.13v0h1.95l-1.34.3v0l2.06-.32a.43.43,0,0,0,0,.05c-.7.18-1.39.41-2.09.52-.26,0-.55-.2-.83-.3-.63-.22-1.25-.47-1.9-.64a2.89,2.89,0,0,0-1.81.12,1.66,1.66,0,0,1-.37.14c-.57.08-.83.63-1.3.87l.06.09.58-.39,0,.06-.26.25c.25.1.49-.52.79.12l.41-.67.11.1-.26.34c.4.22.65-.19,1-.19l-.69.46a.24.24,0,0,1,0,.08l1.19-.29a2.23,2.23,0,0,0-1.16,2.18A2.6,2.6,0,0,1,30,201.94l.08.1-.63.4c-.26.15-.5.3-.52.67,0,.17-.09.34-.12.52a2.32,2.32,0,0,1,1.27-1.14l-.76.72.1.12a3,3,0,0,1,2.08-1l-1.49.63s0,0,0,.06l.47-.11-.49.63a1.45,1.45,0,0,1,1.34-.6L30,204.08l.07.09.48-.42,0,0c-.06.11-.13.22-.2.33.48-.41.89-.94,1.58-1l-.9.67,1.72-.81c0,.05.05.09.07.14a11.86,11.86,0,0,1-1.17.61,1,1,0,0,0-.56.81,2.41,2.41,0,0,0,.07.78c.18-.7.26-1.51,1.22-1.52l-.57.79.06.06.5-.58L32,205.19l.1.05a1.33,1.33,0,0,1,1.45-1,3.44,3.44,0,0,0,.7-.18c-.58.43-1.54.49-1.46,1.6.36-.95.41-1,1-1.12l-.68.59,0,.05.92-.58-.77.94.05,0,.84-.76.07.09-.35.29.57-.06-.25.32,0,.05.64-.44-.18.32.62-.42,0,0-.71.84.05.06.78-.41-.37.52.73-.45c0,.33.1.59.15.89.08-.2.16-.37.26-.6l.28.69c0-.33,0-.54-.07-.87A8.34,8.34,0,0,1,38.09,208v.29l0,0A6.82,6.82,0,0,0,31,206.74a9.68,9.68,0,0,0-4.41,2.65.15.15,0,0,0-.09,0h0l-.19.24c-.07.1-.16.19-.23.29l-.2.32c-.14.2-.26.42-.39.63l-.08.12-.12.22-.16-.11-.15-.09c-.08-.05-.15-.08-.15-.06s-.12-.05-.12,0,.05.11.18.25l.27.29,0,.06-.13-.13-.08-.08-.29-.23c-.08-.06-.14-.1-.14-.07a.34.34,0,0,0,.08.12l.24.27h0l.3.36-.22-.15c-.05,0-.08-.07-.08-.06s-.13-.11-.14-.09h0l0,0-.65-.37c-.27-.15-.47-.22-.1.12.22.2.56.46.56.46l.22.14c.21.14.43.28.63.43l0,0-.24,0-.2,0-.2-.16h0l-.25-.25s-.29-.26-.28-.24-.15-.1-.15-.07a.52.52,0,0,0,.09.12l.23.27.24.25,0,0-.13,0-.09-.08s-.32-.23-.31-.21-.15-.09-.15-.07a.89.89,0,0,0,.1.12l.14.14-.61-.17s0,0,0,.08l.15.13c.24.18.59.11.79.42a.37.37,0,0,0,.13.12l-.3,0c-.32,0-.53,0,0,.15l.5.13h.08l.13,0,.11,0h0l-.39.15c-.07,0-.12-.05-.12,0l.05.06-.36.14a.43.43,0,0,1,0,.05l.24,0,.25.12a4.11,4.11,0,0,0,.46.15l.07,0h0l.41.23a5.24,5.24,0,0,0,.88.36l.22.06h0s0,0,0,0a2.75,2.75,0,0,1,.41.11l-.61,0-.49-.2-.1,0-.36-.11c-.1,0-.17,0-.16,0s0,0,.12.08l.33.17.12,0,.65.28.21.2c-.25-.14-.5-.27-.76-.39l-.47-.2-.24-.1-.15-.06-.36-.11c-.09,0-.16,0-.16,0l.13.08c.13.08.32.17.32.17l.14.05.24.1.47.21c.31.15.63.29.93.47l.16.09s0,0,0,.05a1.49,1.49,0,0,1-.36-.05c-.74-.25-1.47-.52-2.21-.78a.23.23,0,0,0-.16,0l.09,0v0l-.51-.06v0l.36.11v0l-.84,0v0l1.38.14v0h-1.2v.07h1.39v.07h-.8v0l1.06.09v0l-1.67.13V215h1.73v0l-1.44.09v0l2.38.19-1.52.1a0,0,0,0,1,0,0h.59s0,0,0,.06l-.56.06H26.2c-.35,0-.62,0-.88.09a5.47,5.47,0,0,0-.8.19l1.61-.14v.05l-1,.2s0,0,0,.05h1.26l-.9.16v0l.27,0-.29.11v0l1.06-.11v0l-.88.16v.06l1.12-.07v.05l-.93.11h1.52l-1,.23v0l1.6-.25v0a15.31,15.31,0,0,1-1.62.4c-.2,0-.43-.15-.64-.22-.49-.18-1-.38-1.47-.51a2.28,2.28,0,0,0-1.41.1c-.1,0-.19.09-.29.11-.44.06-.64.49-1,.67l.05.07.45-.3,0,0-.2.19c.19.07.38-.4.61.1l.32-.53.08.08-.2.26c.31.18.51-.15.78-.14l-.53.35s0,.05,0,.07l.92-.23A1.75,1.75,0,0,0,23,219a2,2,0,0,1,1.36-1.76l.06.07-.49.31c-.2.12-.39.24-.4.53,0,.12-.07.25-.09.4a1.78,1.78,0,0,1,1-.89l-.59.56.08.09a2.27,2.27,0,0,1,1.62-.8l-1.17.49s0,0,0,.05l.36-.09-.37.49a1.12,1.12,0,0,1,1-.46l-1,.9.06.07.37-.32,0,0-.15.26c.37-.32.68-.73,1.22-.78l-.7.52,1.34-.63a1.17,1.17,0,0,0,.05.11,7.83,7.83,0,0,1-.91.47.75.75,0,0,0-.43.64,1.85,1.85,0,0,0,0,.6c.14-.55.2-1.17,1-1.18-.15.21-.3.41-.44.62l.05,0,.38-.46c-.11.29-.23.59-.35.89l.08,0A1,1,0,0,1,27.1,219a3,3,0,0,0,.55-.15c-.46.34-1.2.38-1.13,1.25.28-.74.31-.78.79-.87l-.52.45,0,0,.71-.45-.6.73,0,0,.65-.58.06.06-.27.24.44-.06-.19.25,0,0,.5-.34-.14.25.47-.33,0,0-.55.65,0,0,.6-.31-.28.4.56-.35c0,.26.08.46.12.7.06-.16.12-.29.2-.47l.22.53c0-.25,0-.42-.06-.67A6.62,6.62,0,0,1,30.63,222v.22h0A5.29,5.29,0,0,0,25.09,221a7.56,7.56,0,0,0-3.42,2s-.05,0-.07,0h0l-.15.18c-.06.08-.12.15-.17.23l-.16.24c-.11.16-.21.33-.31.49l-.05.1-.18.32c-.05.08-.07.15-.05.15s.05,0,.11-.11.23-.28.23-.28l.06-.11.18-.29a.35.35,0,0,0,0,.08.56.56,0,0,0-.09.15c0,.08-.09.15-.06.15s.05,0,.11-.1l.25-.27.07-.1.32-.48.06-.09,0,0-.15.38,0,0c-.06.07-.13.13-.12.13s-.12.12-.09.13l.14-.07.19-.15.1-.08.08-.1.09-.11a2.33,2.33,0,0,1-.07.25l.61-.83,0,0-.31.41-.07.09-.2.31c-.05.08-.08.15-.06.15s.05,0,.12-.1l.25-.26.07-.11.21-.27a.28.28,0,0,1,0,.09l.2-.14,0,0s-.21.33-.19.32-.08.15-.06.15.05,0,.12-.1l.23-.27.08-.11s0,0,0,0a.16.16,0,0,0,.12,0l-.05.1c0,.09-.06.16,0,.16a.33.33,0,0,0,.1-.12l.21-.29.07-.1a2.46,2.46,0,0,1,.17-.27h0l.09-.07-.42.75.53-.44-.07.15-.05.1s-.17.34-.16.33-.07.15,0,.15,0,0,.11-.11a2.35,2.35,0,0,0,.21-.29l.06-.12c.08-.15.16-.31.25-.46l.15-.12c0,.18-.07.3-.09.43l.26-.19-.05.26.48-.39-.07.1c-.06.08-.09.15-.07.15l.12-.09.18-.17.08-.09.08-.1.14-.17.24-.2-.39.56.07.07c.18-.17.31-.44.65-.31l.64-.62.05,0a2,2,0,0,0-.23.28,1.4,1.4,0,0,0-.09.29l.07,0,.48-.47,0,0-.29.36,0,.06.36-.22.23-.12s0,.1,0,.17a2.76,2.76,0,0,0,.23-.27l0,0c-.06.11-.11.23-.17.36l.43-.32,0,0,.07-.07.55-.3-.32.37,0,0,.53-.46a.6.6,0,0,1,.85.07c.12.11.3.15.39.27a6.5,6.5,0,0,0,.78.71v.2l-.08.18c0,.12-.07.25-.1.38a3.22,3.22,0,0,0-2.36-.82,9.56,9.56,0,0,0-4.85,1.3,10.85,10.85,0,0,0-3,2.18c-.15.43-.36.82-.54,1.24a2.91,2.91,0,0,0-.12.39c0,.1,0,.18,0,.27h0l.16-.39h0l-.12.8h0l.51-1.42h0c0,.21-.07.43-.11.65l.05,0,.18-.72c.06-.23.13-.47.21-.78.24.4-.07.68,0,1.05l.29-.85h0c0,.19,0,.38-.05.57h0c.08-.31.16-.61.25-.92h0c0,.22.07.44.11.67h.07v-.76h.06c0,.19.09.38.13.57h0l.06-.77h0c0,.21.05.42.08.63h0c0-.07,0-.13.05-.23a1.38,1.38,0,0,0,.06.16h0l-.05-.44h0l.18.51c0-.3,0-.52-.06-.74h.05c0,.13,0,.26.05.39h0c0-.14,0-.28,0-.42h.05c0,.09,0,.19,0,.31.05-.25.11-.48.16-.71h.05v.73h0l.12-.85h.07c0,.27.07.53.1.8h.09V225h0l.08.2v-.39H23c.09.31.17.62.25.92V225h.05c.05.16.09.32.16.55v-.79c.1.3.18.58.27.85l0,0c0-.3-.09-.6-.13-.9l.07,0c.09.31.18.62.26.93h0c0-.2-.07-.4-.11-.6h0l.21.34c-.05-.33-.09-.58-.13-.89.22.34.09.81.49,1a2.41,2.41,0,0,1-.17-1.27c.07.36.12.64.17.93h.06c0-.27,0-.53-.05-.8h.05c.06.26.13.52.2.78h0c0-.23-.08-.46-.11-.69h0c.12.31.23.63.34.95h0c0-.34-.09-.67-.13-1l.1,0c.05.22.09.44.14.66h0c-.06-.43-.11-.86-.16-1.28h.06c.08.48.17,1,.26,1.43h.09c0-.2,0-.39-.07-.56l.15,0c0,.09.09.24.15.39h0c0-.22-.09-.43-.13-.65h0c.05.17.11.33.16.5H26c-.05-.25-.09-.5-.14-.74h.05c0,.14.08.28.12.45l.06-.17.06.09.12-.34.07,0,.18.49h.08c-.05-.34-.09-.68-.14-1h.07l.15.71h.06l-.06-.54h0c.06.26.12.51.19.77h0v-.58H27l.06.49h0c0-.22.06-.44.1-.66l0,0,.31.81h0c-.08-.45-.15-.91-.23-1.36l.1,0,.36.9h0c0-.3-.05-.59-.08-.93l.25.2s0,0,0,0c-.09-.48-.09-.49.39-.48a2.52,2.52,0,0,1,1.8.69,3.56,3.56,0,0,0-.55.11,1.91,1.91,0,0,0-1,.94,7.17,7.17,0,0,1-.57.76l-.45.66s0,.09-.06.14c-.27.46-.57.9-.81,1.38a10.7,10.7,0,0,0-.61,1.48c.08-.1.15-.21.28-.37-.07.4-.12.72-.19,1.11l.18-.25c-.05.34-.09.63-.14.93h.06c0-.11.06-.23.11-.38l.19.19.2-.14.37.68,0,0c0-.09,0-.18-.07-.26s-.12-.36,0-.55,0-.21,0-.31l.32.31a.45.45,0,0,0,0-.11v0l.11.16.1.14c.06.08.11.14.12.11a.55.55,0,0,0-.05-.14c-.06-.14-.15-.32-.15-.32l0-.08c.05-.06,0-.15,0-.22s-.07-.28-.1-.42a.59.59,0,0,0,0,.08c.07.16.16.3.24.45l.05.1.11.16.1.15c.06.07.11.13.11.11s0-.06,0-.15l-.15-.32-.06-.11c-.08-.15-.16-.29-.23-.44h0l0-.08a1.3,1.3,0,0,1,.08-.17l0,.09L28,229l.05.1s.2.33.2.31.1.14.11.12a.8.8,0,0,0,0-.15c-.05-.14-.13-.33-.13-.33l-.06-.11a1.59,1.59,0,0,1-.12-.27.18.18,0,0,1,.05.07c.12.25.22.51.36.86,0-.25,0-.41-.06-.59l.27.15a.55.55,0,0,1-.21-.42l0,0s.19.34.19.32.1.14.11.12a.64.64,0,0,0,0-.15c-.05-.14-.13-.33-.13-.33l0,0a.71.71,0,0,1,.08.15c.05.08.1.14.11.12h0a.47.47,0,0,0,0-.15l-.12-.34-.06-.11-.09-.22s0-.08,0-.12c.06.16.12.32.19.48h.07v-.23l0,.07s.17.35.17.33.09.15.1.12,0-.05,0-.14-.11-.34-.11-.34l0-.12-.11-.3v-.13a2.42,2.42,0,0,0,.19.29c.05.08.1.13.11.11s0-.05,0-.14l-.15-.33-.06-.11-.05-.1v-.07h.21l-.3-.54,0,0,.78.87,0,0c-.13-.34-.27-.68-.4-1l.06.09.05.1.21.3c.06.08.11.14.12.11a.55.55,0,0,0-.05-.14,3.2,3.2,0,0,0-.15-.33l-.06-.11-.12-.18a1,1,0,0,1,.08.11l.07.08.13.14.13.13c.07.06.13.11.14.08a.44.44,0,0,0-.08-.13c-.12-.16-.2-.29-.2-.29l-.06-.07-.26-.38.3.1,0,0,.08.08.14.13.13.12c.08.06.14.11.14.08a.44.44,0,0,0-.08-.13l-.14-.19-.08-.09-.09-.09L29.2,226l.07,0,.1.08c.07.07.15.12.14.12s.14.09.14.07a.34.34,0,0,0-.08-.12l-.15-.18.1,0v-.09l-.66-.45,0-.06,1,.29-.58-.47.55.2c-.11-.23-.49-.3-.31-.66l.27.13,0,0-.35-.29,0,0,.26.12-.25-.47.2,0-.08,0-.24-.19c.07-.08.13-.23.2-.24a3.22,3.22,0,0,1,.76,0s0,0,.07.08,0,.23,0,.35l-.07.1-.07,0c-.05.19-.1.37-.16.56.1,0,.23-.13.25-.11l0,.05-.06.08-.07.12s0,.06,0,.06,0,0,0,0l.1-.07s0,.1,0,.16l-.11.12-.08.14c0,.06,0,.11.06.05a.56.56,0,0,0,.12-.09l0,0v0l-.11.15-.09.14s0,.08,0,.08,0,0,.06,0l.14-.1.05-.06v0h0c0,.08-.1.16-.14.25a2.27,2.27,0,0,0-.22.41l.07-.06c0,.05-.05.09,0,.09s0,.08,0,.08l.07,0a.72.72,0,0,0,.12-.11l.06-.08a.46.46,0,0,1,.07-.1l.1.12,0,0-.2.23-.07.08s-.21.33-.19.32-.08.15-.06.15a.89.89,0,0,0,.12-.1l.23-.27.08-.1.18-.2q.06.33-.45.69l.13.07,0,0-.06.09-.17.33c0,.09-.06.16,0,.15s.05,0,.1-.11l.11-.13a1.58,1.58,0,0,1-.19.59l.29-.24.05,0-.69,1.14,0,0c.07-.08.61-.85.7-1a6.59,6.59,0,0,1-.42,1c-.12.43-.25.85-.38,1.31l.21-.14c-.07.23-.14.43-.2.62h0c.21-.32.41-.65.62-1l.12.08c-.1.22-.21.45-.31.68l.09.06.41-.55a.13.13,0,0,1,0,.06l0,.16c-.1.15-.19.31-.28.45s.13-.11.23-.22a2,2,0,0,0-.05.26c0,.21-.09.43-.12.65l0,.32a.31.31,0,0,1,0,.1v.07l0,.37c0,.09,0,.17,0,.15a.36.36,0,0,0,.05-.14c0-.15.07-.35.07-.35s0-.08,0-.14l.05-.33s0-.06,0-.09l.19-1v-.05c.07-.06.1-.08.08,0a9.82,9.82,0,0,0-.07,1.79c0,.35,0,.71,0,1.06,0,.69.12,1.37.14,2s0,1.32,0,2c0,.34,0,.68,0,1,0,.53-.06,1.06-.07,1.59,0,.37,0,.73,0,1.09,0,.76,0,1.53,0,2.29s.07,1.63.08,2.45,0,1.53,0,2.29c0,.54.06,1.07.08,1.61a1.62,1.62,0,0,1-.06.58,5.39,5.39,0,0,0,0,1.7c0,.7,0,1.4,0,2.1,0,.22.06.45.08.68s0,.62.07.94c0,.56.09,1.13.14,1.69,0,.05,0,.11,0,.15a6.57,6.57,0,0,0,.05,1.88c0,.57,0,1.14.08,1.7s.14,1.37.19,2.05c0,.49,0,1,.05,1.47,0,.05,0,.09,0,.13a8.13,8.13,0,0,1,.19,2.15c.06.55,0,1.12.07,1.68s0,.67-.56.6l.36.2-.11,0-7.08.57,44.16.81a31.8,31.8,0,0,0,15.06.28l15.43.28-12.61-1a31.93,31.93,0,0,0-9.76-62.33Zm-36.51,1.86.31-.26.18-.08.07,0,.79-.32h.09v0l.28-.12.2,0,.13,0-.21.14c-.1.07-.25.08-.36.2l.21,0s0,0,0,.06l-1.7.44A.22.22,0,0,0,40.23,209.42Zm1.33-13.65a2.84,2.84,0,0,1,.17-.49l0-.14a2.35,2.35,0,0,1,.46,1.78c-.15-.21-.27-.52-.49-.63S41.53,196,41.56,195.77Zm.25,1.68c-.19-.39-.36-.75-.54-1.11A.89.89,0,0,1,41.81,197.45Zm-11-.67h0l-.05,0-.08,0s0,0,0,0l.55-.07Zm7.93,6a.45.45,0,0,1,0,.12c-.3,0-.58.34-.91.1,0-.05,0-.09,0-.14Zm-1.25-.27c0-.05,0-.1,0-.16l1.09-.14a.3.3,0,0,1,0,.1Zm1.15-.7v.11l-1.34.27-.28-.47ZM38,207.12a8.47,8.47,0,0,0-1.64-2.33,2.9,2.9,0,0,1-.72-.84,1.94,1.94,0,0,0-1.07-.85,2,2,0,0,1-.34-.25l.82-.29,1.06-.21a.09.09,0,0,1,0,.05l-.78.43,1-.21c-.16.24-.27.42-.39.59l.06.11.68-.16-.43.53,0,0,.28-.18c0,.21,0,.37,0,.49.18-.13.38-.26.59-.39l.09.08c-.08.2-.15.4-.23.61.31.37.44-.25.71-.16l-.41.39.37-.08-.23.28,0,0,.58-.37a7.29,7.29,0,0,1,.49,3.32c0-.12-.06-.25-.06-.27s-.06-.21-.08-.19,0,.07,0,.19a2.09,2.09,0,0,0,0,.25A3,3,0,0,1,38,207.12Zm.11,16a20.08,20.08,0,0,1-2.05-.67,5.06,5.06,0,0,0-1.35-.27l0,0a1.69,1.69,0,0,0-1.25,0,2.25,2.25,0,0,0-.21.12h0a0,0,0,0,0,0,0h-.08s-.06,0-.15,0l-.23.08-.11.06-.08.05-.2.09,1.12-1.38.16.12,0-.2h0l.18.68h0c0-.26-.05-.52-.08-.87l.55.94,0,0c-.07-.23-.13-.46-.19-.7h0c.06.1.12.19.17.29l0,0c0-.16-.07-.32-.11-.49h0c.09.22.19.44.29.66l.08,0-.18-.7,0,0,0,0c.1.21.21.42.32.63h0l-.18-.53,0,0,.22.38,0,0c-.1-.24-.21-.47-.31-.71l0,0,.52.63h0c-.09-.18-.19-.36-.29-.54a.1.1,0,0,1,0,0c.12.15.24.31.37.46l0,0a2.29,2.29,0,0,0-.1-.23l.2-.11.16.25.09,0-.25-.64.36.36,0,0-.14-.25.57.58.05,0c-.14-.23-.29-.45-.44-.68l.06-.05c.11.14.21.28.32.41l.08-.06-.39-.56.06-.05c.17.21.35.41.53.62l0,0-.34-.55.44.14-.16-.29,0,0,.7.61-.23-.38.25.12-.3-.39,0,0,.39.34,0,.3c0,.09,0,.1,0,.13v.09s0,.5,0,.47c0,.13,0,.22,0,.2s0-.06.07-.18l.09-.45c0-.06,0-.1,0-.18l0-.23.07.06,0,0a1.47,1.47,0,0,0-.1-.13l0-.09a.51.51,0,0,1,0-.13v-.07a2.2,2.2,0,0,0,.25.17c0,.37,0,.69,0,.84,0,.45,0,.91,0,1.36s.07.87.1,1.31l-.53-.06s-.43,0-.43-.07l.82-.11S38.15,223.13,38.13,223.13Zm-4.54-.42s0,0,0,0l-1.32.35V223l.23-.21.15-.06,0,0,.62-.25h.06v0l.21-.09h.16l.1,0-.16.11c-.08.06-.2.06-.28.16Zm4.16-3.07a1.55,1.55,0,0,0,0,.21l-.3-.4,0,0Zm-.3-1.55c.07-.1.13-.2.19-.3l.15.09-.18.11Zm-.73-4.4h0l-.1-.1,1,0-.09.14Zm.76.13s0,.07-.06.1l-.59-.09,0,0h0Zm-1.42-.27h.11l.24.07,0,0-.32,0Zm.65.37,0,0,.06.05-.46,0-.06-.08Zm.86-.5-.85-.11v0l.31,0v0l-.45,0,0,0h.93a.24.24,0,0,0,0,.08l.08-.08h0l-.06.11c0,.05,0,.1,0,.11a.2.2,0,0,0,.09-.05l.16-.15v0H38v0h-.19l0-.05s0,0,0,0l.17,0s0,0,0,0l0,.05-.26.29-.08.1-.45-.08.38,0Zm-1-.27h0l.13,0,0-.09a8.42,8.42,0,0,1,.87,0,.42.42,0,0,0,0,.1Zm.69-.47h.55a.08.08,0,0,0,0,0l0,0Zm.62-.13,0,.07H37l-.05,0a.28.28,0,0,0,0-.09l.65,0s0,.08,0,.08,0,0,.09,0l0,0Zm-1.08-1.25,0,.08-.1-.08,0-.05Zm0,1H37l0,0h0l.62,0,0,.06c-.3,0-.6,0-.91,0l0,0Zm1.08-1.67-.13.13-.05,0,0,.1-.24.23.46-.62C37.81,210.55,37.8,210.61,37.8,210.67Zm-.08.85,0,0-.23.18a.86.86,0,0,1-.07-.1l.37-.26,0,0Zm.09-1h-.1l-.57.67,0,0,.45-.63h-.1l-.39.46h0l.23-.43h-.11l-.32.61a1.09,1.09,0,0,0-.08-.15c0-.09.07-.17.11-.25h0l0,0,.06-.16h-.09l-.06.1-.1-.08h0l-.19-.15c.08-.1.16-.3.26-.31a4.59,4.59,0,0,1,1,0s.06.05.08.1S37.81,210.4,37.81,210.48Zm-.16,2.4-.07.12h-.91l-.18-.12Zm0,1h.16v-.05H37.7l.06-.08.06-.07h.09v0h-.07l0,0,.24-.27a.8.8,0,0,1-.31.67l-.24,0Zm.46,5.38.05,0v.15l-.12-.11Zm.21,4.35a.17.17,0,0,1,0,.07H38v0Zm-.32.2.34,0v.1l-.35,0ZM31,208.5l.18-.23.31-.25-.48.68s0-.11,0-.17l0,0Zm.14.26L31,210.41H30.9l.12-1.63.07.06Zm-.35,0,.11-.12,0-.06c0,.3-.07.61-.1.92h-.05c0-.24,0-.48-.05-.72Zm-.2,0,0,0h0Zm.13.06v1h0c0-.3-.06-.59-.1-.89Zm-.19,0v0l0,.06-.06.09v-.09Zm0,.18v.21h-.06a.59.59,0,0,1,0-.14Zm-.49-.06,0,.07,0,0Zm-5,4.31h0l0,0-.06,0v0l.43-.05Zm1.24.22a.06.06,0,0,0,0,0l.1,0Zm1-.49h0c-.14-.19-.27-.38-.42-.56l-.32-.4-.25-.28c-.06-.07-.12-.11-.13-.09a.73.73,0,0,0,.07.14l.19.3.09.11.11.17-.05.1h0a6.17,6.17,0,0,0-.48-.54l-.44-.41-.24-.19,0,0,.16-.19.08-.14.23-.38a.36.36,0,0,0,.07.1l-.13.2c-.06.1-.1.19-.07.19s.06,0,.15-.13.32-.34.32-.34l.09-.14.41-.61a.76.76,0,0,1,.08-.11l0,0c-.07.17-.13.33-.19.5,0,0,0,0,0,.05s-.17.17-.15.16-.15.17-.12.17a.5.5,0,0,0,.18-.09,2.15,2.15,0,0,0,.24-.18l.13-.11.11-.12L27,210l-.09.32.78-1.07,0,0-.4.53-.09.11-.26.4c-.06.1-.1.19-.07.19s.06,0,.15-.13a4,4,0,0,0,.31-.34l.1-.13.28-.35,0,.12.26-.18,0,.05s-.27.43-.25.41-.1.2-.07.19.06,0,.15-.13.3-.35.3-.35l.1-.13,0,0a.2.2,0,0,0,.16,0,.63.63,0,0,0-.06.13c-.05.11-.08.21-.05.2s.06-.05.13-.15.27-.37.27-.37l.08-.14a2.7,2.7,0,0,1,.22-.33h0l.11-.09c-.17.32-.35.63-.54,1l.69-.57a1.74,1.74,0,0,0-.1.19l-.07.13-.2.42c-.05.11-.09.2-.06.2s.06,0,.14-.14a3.41,3.41,0,0,0,.27-.38l.08-.15.31-.59.2-.16c0,.09,0,.17,0,.24l-.07,0-.06,0,.09.16,0,.16.09-.07.13.23a2.13,2.13,0,0,1,.27.52l-.59-.73-.05,0,.63.85,0,0-.6-.69,0,0,.49.68-.74-.47,0,0c.18.21.35.42.53.62l-.05.07c-.17-.11-.34-.23-.52-.33a.15.15,0,0,0-.16,0s0,.11,0,.16,0,0,.05.08a8.17,8.17,0,0,0,1.25,1.55.44.44,0,0,1,.08.11c-.45-.33-.82-.78-1.29-1.09l-.06.08.4.36-.05.06-.32-.23,0,0,.6.55s0,0,0,.05l-.47-.33,0,0,2.05,1.93-.05.06-1.88-1.49-.05.06.39.49-.06,0-.27-.06.33.51.33.66-.51-.48,0,0,.93,1,0,0-.63-.6,0,0c.14.16.28.33.4.45s0,.17,0,.23l.06.05a1.8,1.8,0,0,0-.05.19l-.32,0,0,0,0,0h0a.14.14,0,0,0,0,.06,2.67,2.67,0,0,0,.22.41,1.1,1.1,0,0,0,.25.23l-.05.06-.3-.23,0,0,.62.6-.34-.08.24.23-.41,0,.65.36h-.63v0l.68.12a.41.41,0,0,0,0,.11l-.62.08v0h.55v0l-.74.05A32,32,0,0,0,27.23,213ZM30,217.42l-.21-.36,1.25.07v.08Zm1,.09-.85.16s0-.08,0-.12l.85-.12A.22.22,0,0,0,31,217.51Zm0,4.24c0-.09-.05-.19-.05-.21s-.05-.16-.06-.15a.32.32,0,0,0,0,.15c0,.06,0,.13,0,.2a2.38,2.38,0,0,1-.34-.49,6.32,6.32,0,0,0-1.27-1.8,2.21,2.21,0,0,1-.56-.66c-.18-.38-.51-.49-.83-.66a1.15,1.15,0,0,1-.26-.19l.63-.23.83-.16v0l-.61.33.81-.16-.29.46a.2.2,0,0,0,0,.08l.53-.12-.34.41,0,0,.22-.13c0,.16,0,.28,0,.37l.45-.3.07.06c-.05.16-.11.31-.18.48.24.28.34-.2.56-.13l-.32.3.29-.06-.19.22,0,0,.45-.28A5.68,5.68,0,0,1,31,221.75ZM30.46,218v-.1l.7-.07a.34.34,0,0,1,0,.1C30.94,218,30.72,218.24,30.46,218Zm.95-5.57-.08-.05c.47-.87.94-1.75,1.4-2.63l-.12-.14-1.09,1.67c.2-.44.37-.8.54-1.16s.24-.47.34-.71l0,0-.83,1.6h0c.23-.57.47-1.13.71-1.7l-.09-.06-.72,1.66-.07,0c.2-.58.39-1.17.58-1.76h0l-.34.85h0c.08-.33.16-.66.23-1l-.08,0c-.1.36-.21.71-.31,1.07h0c.07-.38.13-.76.2-1.15l-.09-.05c-.11.51-.22,1-.32,1.54h-.05c.06-.54.12-1.08.19-1.62a.57.57,0,0,1,.68-.24l.83-.8a.23.23,0,0,0,.07.07,2.58,2.58,0,0,0-.31.36,2.26,2.26,0,0,0-.11.37l.09,0,.61-.61.06.05-.38.45.05.08.48-.28.28-.16c0,.06,0,.13,0,.23l.3-.35,0,0-.22.46.56-.41.06.05.09-.09.7-.38-.41.48,0,.05c.23-.2.45-.41.68-.6a.77.77,0,0,1,1.1.09c.15.14.39.2.51.35a7.08,7.08,0,0,0,1,.91,2.35,2.35,0,0,1,0,.26,2.29,2.29,0,0,0-.1.23,2.83,2.83,0,0,0-.13.5,3,3,0,0,0-.5-.4.48.48,0,0,1-.12.16l.28.23a5.58,5.58,0,0,0-.71.14A2.51,2.51,0,0,0,35.59,211a1.34,1.34,0,0,1,0-.2l-.1,0,0,.35a1.74,1.74,0,0,1-.11.18,2.59,2.59,0,0,0,0-.48l-.12,0,0,.61-.06.09c0-.22-.05-.45-.07-.67L35,211v.82l-.08.1-.11-.84-.09,0c0,.32,0,.64.08,1l-.07.09c0-.33-.1-.67-.14-1l-.07,0c0,.36.08.72.13,1.08l-.06.1c0-.2-.07-.4-.11-.6a2.83,2.83,0,0,0-.13-.5l-.05,0c.05.29.1.57.14.85h0l-.18-.81-.06,0,.18,1.36-.08.11c-.08-.38-.17-.76-.25-1.13h0c.07.43.13.85.2,1.27h0a1,1,0,0,0-.07.15c-.18-.43-.37-.86-.56-1.28a.37.37,0,0,0-.12-.13c0-.13-.08-.26-.12-.37l-.46.7-.11-.06c.1-.37.19-.74.28-1.11l-.05,0-.78,1h0l.75-1.3,0,0-.21.26q.14-.35.27-.66a.44.44,0,0,0-.08-.11Zm4.42,2.31h-.21l-.08-.13h.17Zm-.52,1.4c0,.11.09.23.14.34h.09v-.29l0,.09.18.37-.3-.05-.05-.15-.07-.14c0-.06-.05-.11-.07-.17Zm.12-1.74h0l0-.05.06.07Zm-.78,2.28.07.09.19.43h0v0l-.07-.14A2.21,2.21,0,0,1,34.65,216.72Zm0,.44-.32-.1,0-.08h0a.42.42,0,0,1,0-.1l.09-.2h0a1,1,0,0,1,0,.1,3.73,3.73,0,0,0,.16.35Zm-1.2-4.31c-.21-.12-.15-.26-.13-.4a2.43,2.43,0,0,1,.13-.38l0-.11a1.79,1.79,0,0,1,.35,1.38C33.71,213.18,33.62,212.94,33.45,212.85Zm.06.9-.41-.86A.68.68,0,0,1,33.51,213.75ZM32,222.26l0,0,.3-.06c0-.07-.1-.11-.17-.15l0-.05.1-.16a1.62,1.62,0,0,0,.1-.15c.05-.07.09-.14.07-.14s0,0-.13.09a2.5,2.5,0,0,0-.24.27l0,0a.24.24,0,0,1,0-.22l-.23.22a1,1,0,0,1-.1-.29c0-.53,0-1.07,0-1.6,0-.33.17-.38.45-.21s.4.28.63.44c0-.11,0-.18-.07-.29l.4.1-.2-.28.53.2v-.07l.47-.08a1.12,1.12,0,0,1-.86-.5l.31.14,0,0-.34-.3c.11-.14.18-.31.4-.24l.14.25.07,0a.94.94,0,0,1,0-.16,2.38,2.38,0,0,0,.61.16l-.65-.28v0l.69.06,0-.08-.41-.29a.09.09,0,0,1,0-.05l1,.28,0-.07-.49-.28,0-.07.39.11a2.79,2.79,0,0,1-.15-.3h0s0,.05,0,0,.14.18.15.15a.85.85,0,0,0-.06-.17l.14,0,0,0-.21-.12,0-.05.41.06-.29-.37h0l0,.05c.06.1.13.18.14.15h0a.71.71,0,0,0-.05-.19h0c0,.08.07.17.1.26,0-.09,0-.17,0-.25l.38,0v0l-.41-.15c0-.06,0-.11,0-.15h.1l-.11,0c0-.05,0-.1,0-.15l.34.19a.75.75,0,0,1-.27-.54l0,.07.24.41c.07.1.13.17.14.15s0-.08-.05-.19-.16-.43-.16-.43l0,0,.11.18c.06.11.12.18.13.16h0s0-.08,0-.19a1.69,1.69,0,0,0-.08-.24h.29l0,.06c.06.1.12.18.13.16s0-.08,0-.2-.14-.43-.14-.43l0-.1H36v0l-.34,0-.07-.19.15,0,0,0c.08.1.14.18.15.15s0-.07-.06-.19h0l.82-.08v0h-.86v0h.29v-.06l-.33,0a.58.58,0,0,0-.05-.11l.32-.05-.36,0-.08-.14,0,0h.1v-.06h-.13v-.11h.27l-.15-.27.25,0,.57.64.05,0-.22-.57h0v-.08h-.06c-.09-.22-.17-.44-.26-.67l.07.12.08.12.26.4c.08.1.14.17.15.14s0-.07-.06-.19-.19-.42-.19-.42l-.08-.14a1.3,1.3,0,0,0-.1-.15h0l0,0,.09.11.18.18.16.17c.1.08.18.14.18.11a.56.56,0,0,0-.1-.17l-.26-.38,0-.05.47,0s0,0,0,0,.18.14.18.11a.4.4,0,0,0-.07-.13h0V214H37l0-.07.46,0h0c-.06.1-.1.19-.07.19a.76.76,0,0,0,.15-.13l0-.05.25,0a2.31,2.31,0,0,1-.23.18l.15.1v0l-.08.12s-.24.44-.22.42-.08.21,0,.2.06,0,.13-.14.09-.11.14-.17a2.29,2.29,0,0,1-.25.76l.38-.31.06,0-.89,1.47,0,0c.08-.11.78-1.1.9-1.25a10.08,10.08,0,0,1-.55,1.24c-.15.55-.32,1.1-.49,1.69l.27-.18,0,.09a12.12,12.12,0,0,0-1.61.81c-.22.14-.43.31-.64.46s-.46.32-.7.45a3.41,3.41,0,0,0-1.1,1.28c-.26.44-.53.88-.8,1.32-.08.14-.19.22-.3.07q.07-.22.15-.42Zm7.57,46.08-.53,0h-.09l0,0-5.14.41c-.08-.51-.15-1-.21-1.51s-.09-1.06-.13-1.59-.08-.9-.11-1.35c0-.16,0-.32,0-.49,0-.6,0-1.21-.09-1.81,0-.42-.18-.84-.2-1.27s.05-1.15.05-1.73c0-.34-.06-.69-.09-1a8.94,8.94,0,0,1-.11-2.42,3.19,3.19,0,0,0-.08-.6c0-.67-.06-1.33-.09-2,0-.45,0-.9-.06-1.34,0-.15,0-.29,0-.43,0-.58-.09-1.17-.1-1.75,0-.35.05-.7,0-1a5.79,5.79,0,0,0,0-1,9.56,9.56,0,0,1-.07-1.7c0-.41-.05-.82-.08-1.22,0,0,0-.05,0-.07a7.79,7.79,0,0,0-.06-2.36,6.64,6.64,0,0,1,0-.77c0-.35,0-.69,0-1a5.85,5.85,0,0,0,0-1.39c-.15-.49,0-1-.13-1.43a.61.61,0,0,1,0-.4,5.15,5.15,0,0,0,.07-1.75c0-.4-.12-.81-.15-1.21a2.81,2.81,0,0,1,.06-.65,4.09,4.09,0,0,0,0-1.67,5.11,5.11,0,0,1-.05-1l.18.54,0,.1.14.34c0,.09.08.15.09.13s0,0,0-.15-.08-.34-.08-.34l0-.12-.31-.95v-.46l.24.42.2.39.1.19,0,.07,0,.06s.17.34.16.33.1.14.11.12a.44.44,0,0,0,0-.14c0-.15-.11-.35-.11-.35l-.05-.12-.1-.2c-.07-.13-.13-.27-.21-.4l-.34-.58.54.44a.08.08,0,0,0,0,0l-.71-.87,0-.06.54.44,0,0-.66-.8.08-.08.53.37,0,0-.64-.55.07-.09.92.48a.25.25,0,0,1,0-.07c-.29-.34-.73-.5-1-.84l.07-.09,1,.45a.08.08,0,0,0,0-.05l-1-.61.07-.12.77.36,0-.11h0l0,0a.87.87,0,0,0-.07-.17,1.71,1.71,0,0,0-.2-.27l-.55-.57,0-.05.55.4c-.1-.31-.44-.4-.57-.67l.63.31-.06-.18-.61-.24,0,0,.73.17-.16-.14.09.06c.08,0,.14.09.14.07s0-.05-.09-.13-.25-.25-.25-.25l-.09-.09a3.08,3.08,0,0,1-.27-.24v0l.87.49-.29-.38,0-.05.18.11,0,0-.43-.5.05,0,.12.07.16.08c.09,0,.16.06.16,0s0,0-.11-.1l-.19-.14-.09-.08-.11-.07-.2-.15,0-.11v0l.33.16.1.05.34.14c.08,0,.16.07.15.05s0-.05-.11-.11a2.85,2.85,0,0,0-.31-.19l-.11-.06-.35-.17a.19.19,0,0,0,0-.07,1.7,1.7,0,0,0,0-.22l.1,0,.17.07c.09,0,.16.06.16,0a.33.33,0,0,0-.12-.1c-.1-.08-.25-.17-.29-.2a1.79,1.79,0,0,0,0-.23l.37.08-.36-.4c0-.11,0-.21,0-.31v-.13a1.94,1.94,0,0,1,1.16-.17l-.35.23.39-.05-.25.21,0,0,.28-.13-.25.62,0,0,.26-.4.06,0c0,.07-.07.14-.11.24l.16-.05c0,.08-.06.15-.13.3l.24-.19c-.3.35.09.58.11,1,.12-.19.2-.3.27-.42l.06.05c0,.29-.06.57-.08.86l0,0,.39-.73.07,0c-.06.18-.11.36-.17.53h0c.12-.18.23-.37.34-.56l.08,0c-.06.13-.13.26-.22.44l.21-.15c0,.23-.11.47-.16.7l.06,0c.06-.15.12-.3.19-.44h0c0,.09,0,.17,0,.24l.44-.35,0,0c0,.09,0,.19-.08.28h0l.16-.23h0c-.06.15-.11.29-.17.43l0,0,.21-.28,0,.05-.22.38.38-.26.07,0-.13.32.36-.15-.33.45,0,0,.53-.38,0,0-.46.59,0,0,.56-.36.05.06-.3.34h.16l-.24.57,0,0,.36-.66.06,0c-.1.32-.2.63-.32,1l.42-.26c0,.07,0,.12,0,.18l.52-.36,0,0-.38.5.23-.09c-.06.19-.12.34-.17.5l0,0c.09-.2.18-.38.28-.58h0c0,.17-.09.33-.13.49h0l.36-.79.12.06-.47,1,.22-.19,0,0-.18.31,0,0,.3-.3,0,0-.49.62.45-.22a1.5,1.5,0,0,0,0,.2l.48-.5v.11l-.27.39,0,0,.24-.17c-.17.29-.3.5-.44.71l0,0,.12-.09,0,0-.24.4.05,0,.42-.52c0,.14,0,.29,0,.43s-.05.1-.07.14l.07,0a1.62,1.62,0,0,0,0,.22l-.05.08,0,0h0c0,.16,0,.33,0,.5,0,.46,0,.93,0,1.39,0,1,0,2,0,3s.09,2.1.09,3.15,0,2,0,3c0,.69.09,1.38.11,2.07a2.36,2.36,0,0,1-.07.75,6.77,6.77,0,0,0,0,2.2c0,.89,0,1.79.05,2.69,0,.3.08.59.11.88s0,.81.08,1.21c.06.73.12,1.46.19,2.19,0,.06.05.13,0,.19a8.6,8.6,0,0,0,.07,2.43c0,.73,0,1.46.1,2.19.07.88.18,1.75.24,2.64,0,.63,0,1.26.07,1.89,0,.06,0,.12,0,.16a10.36,10.36,0,0,1,.24,2.78c.09.71,0,1.44.09,2.16C39.7,268,39.7,268.25,39.56,268.34Zm.8-49.08c.06.05,0-.18.35.13l.09.17,0,.09,0,.08,0,0-.1-.07-.35-.25-.21-.18,0-.06C40.27,219.22,40.33,219.29,40.36,219.26Zm0-2.2,0,0,0,0,0,0Zm.53-.28-.36.19-.07-.05.25-.23Zm-.92-.47.65.33-.26.19-.11-.1.1-.12,0-.05a.58.58,0,0,0-.18.08l-.25-.22A1,1,0,0,1,40,216.31Zm.28.6-.19.14,0-.05c0-.05.09-.1.13-.16Zm-.38-.09.1-.1,0,0-.13.1Zm.25.6.12.1-.15.06-.07-.09Zm12.1,49.63-2.09.26,2-.38-.38-7.55a32,32,0,0,0,10.35,8.49Zm89.33-16.51c-.34.47-.67.94-1,1.42s-.85,1.11-1.27,1.66-.78,1.08-1.18,1.61-.6.79-.93,1.2c-.18.21-.36.45-.55.67a5.89,5.89,0,0,1-.54.58,3.4,3.4,0,0,1-.57.47,1.78,1.78,0,0,1-1.72,0,1.52,1.52,0,0,1-.22-.22,3,3,0,0,1-.33-.79c0-.13-.09-.27-.12-.42a7.13,7.13,0,0,1-.3-1.37c-.09-.47-.12-.94-.18-1.43,0-.08,0-.17,0-.25s0-.49,0-.72,0-.27,0-.39a4.29,4.29,0,0,1,0-.62v-.75c0-.32,0-.64,0-1s0-.59,0-.89V247c0-.35,0-.72,0-1.07s0-.69,0-1a.27.27,0,0,1,0-.15c0-.12.18-.2.39-.2s.3,0,.42,0a.83.83,0,0,1,.61.36,2.6,2.6,0,0,1,.21.65l.09.61c0,.2,0,.38,0,.58,0,.39,0,.79,0,1.19s0,.83,0,1.24V250c0,.1,0,.2,0,.3v.45c0,.42,0,.82.06,1.23s0,.6.06.9,0,.82.06,1.24.06.79.06,1.18a2,2,0,0,1,0,.42c0,.13,0,.27,0,.4l.09.65a1.78,1.78,0,0,0,.18.78,1.94,1.94,0,0,1,.25-.22,8.78,8.78,0,0,0,.81-.94c.82-1,1.54-2,2.29-3l1-1.37.91-1.23c.51-.67,1-1.36,1.51-2.05.33-.45.69-.92,1.05-1.39s.76-1,1.15-1.47c.09-.11.21-.22.3-.32.28-.3,1.12,0,.91.25l-1.36,1.79c-.3.42-.6.84-.88,1.25s-.45.62-.66.94Zm17.87-1.36c.12.1.12.59-.44.59a3.68,3.68,0,0,1-.69-.12c-.15-.07-.24-.15-.24-.27a.27.27,0,0,0,0-.15.42.42,0,0,1,.39-.24A1.71,1.71,0,0,1,159.47,249.18Zm15.5,3.1a12.42,12.42,0,0,1-1,1.15,8.75,8.75,0,0,1-1,.84,6.58,6.58,0,0,1-1.24.79,6.34,6.34,0,0,1-2.09.67,3.47,3.47,0,0,1-.66.05.69.69,0,0,1-.51-.15c0-.06-.1-.11-.13-.16a1.26,1.26,0,0,1-.21-.78c0-.15,0-.28,0-.43a2.23,2.23,0,0,1,.37-.84s0,0,.06,0l.18,0,.9-.27c.49-.19.91-.41,1.33-.62a2.81,2.81,0,0,0,.46-.29,4.47,4.47,0,0,0,.93-.84,1.69,1.69,0,0,0,.3-.6c0-.19-.09-.3-.3-.41a.58.58,0,0,0-.21-.06c-.12,0-.27-.05-.39-.09a1.65,1.65,0,0,0-.7,0,4.23,4.23,0,0,0-1.14.31l-.55.23-.6.37-.27.19c-.22.18-.43.35-.61.53a6.39,6.39,0,0,0-.63.66l0,0-1.42,1.19a7,7,0,0,1-.69.56c-.4.3-.89.58-1.35.87a5.33,5.33,0,0,1-.83.39,2.85,2.85,0,0,1-.86.2c-.14,0-.23-.1-.26-.19a.73.73,0,0,0-.11-.18,1.67,1.67,0,0,1-.17-.52,3.08,3.08,0,0,1,0-.74,3.78,3.78,0,0,1,.25-1c.12-.23.26-.47.38-.68a7.48,7.48,0,0,1,.77-1,7.73,7.73,0,0,1,.6-.52,1,1,0,0,1,.32-.17.6.6,0,0,1,.23.17,1.3,1.3,0,0,1,.31.59c.06.11.12.25.2.38a.67.67,0,0,0,.38.27.46.46,0,0,0,.4,0c.17,0,.25-.13.23-.25s0-.1,0-.15a.83.83,0,0,0-.09-.44.73.73,0,0,1-.11-.26,1.42,1.42,0,0,0-.38-.51,2.18,2.18,0,0,0-1.08-.43,3.41,3.41,0,0,0-1,0,.42.42,0,0,0-.2.05,3.75,3.75,0,0,0-.8.42,5.08,5.08,0,0,0-1,1,5.29,5.29,0,0,0-.74,1.19,4.12,4.12,0,0,0-.31,1c-.18.15-.35.28-.48.37a7.14,7.14,0,0,1-1.37.79,5.93,5.93,0,0,1-.78.25,1,1,0,0,1-.35,0,.26.26,0,0,1-.12-.22,1.26,1.26,0,0,1,.06-.74,5.75,5.75,0,0,1,.29-.62c.09-.25.24-.49.36-.77a4.85,4.85,0,0,1,.3-.54,3.88,3.88,0,0,1,.27-.38c.3-.51.57-.74.36-1a1.51,1.51,0,0,0-1.49.09l-.21.21a4.14,4.14,0,0,0-.6.83c-.15.27-.33.53-.45.78s-.21.41-.33.61a1.2,1.2,0,0,0-.11.23l0,.06c-.16.25-.3.52-.47.79s-.19.37-.3.55l-.5.81a2.5,2.5,0,0,1-.44.57s-.05,0-.08.05c0-.19,0-.35-.06-.51a7.22,7.22,0,0,1,0-.8c0-.2,0-.4.08-.6a5.33,5.33,0,0,1,.17-.66,2.72,2.72,0,0,1,.11-.43A2.21,2.21,0,0,1,154,253a7.87,7.87,0,0,1,.47-1.22,2.22,2.22,0,0,0,.13-.61.38.38,0,0,0-.11-.23,1,1,0,0,0-.55-.27,1,1,0,0,0-.74.12,1.13,1.13,0,0,0-.2.13,7.06,7.06,0,0,0-.69.64l-.83.8c-.3.27-.66.54-1,.81a.57.57,0,0,1-.22.1v-.12a5.12,5.12,0,0,1,.14-.63,5.37,5.37,0,0,1,.25-.74c.08-.2.14-.41.22-.61a2.73,2.73,0,0,0,.14-.31c.11-.31.13-.81-.36-.83h-.31a.7.7,0,0,0-.47.15l-.19.19a6.36,6.36,0,0,0-.47.77,4.12,4.12,0,0,0-.56,2.07l-.17.18a9.65,9.65,0,0,1-1,.84,7,7,0,0,1-3.26,1.46,3.36,3.36,0,0,1-.65.05.69.69,0,0,1-.51-.15.91.91,0,0,0-.11-.16,1.26,1.26,0,0,1-.21-.78c0-.15,0-.28,0-.43a2.55,2.55,0,0,1,.35-.84s0,0,.06,0l.18,0,.89-.27c.47-.19.89-.41,1.3-.62a2.33,2.33,0,0,0,.45-.29,4.35,4.35,0,0,0,.91-.84,1.69,1.69,0,0,0,.3-.6c0-.19-.09-.3-.3-.41a.47.47,0,0,0-.2-.06c-.12,0-.27-.05-.39-.09a1.56,1.56,0,0,0-.68,0,4.08,4.08,0,0,0-1.12.31l-.54.23c-.2.12-.38.25-.59.37l-.27.19c-.2.18-.41.35-.59.53a6.25,6.25,0,0,0-.62.66,5.12,5.12,0,0,0-.56.84,2.86,2.86,0,0,0-.3.83,2.5,2.5,0,0,0,0,.67,1.32,1.32,0,0,0,.27.61,1.72,1.72,0,0,0,.89.59,5.16,5.16,0,0,0,2.57.18,7.26,7.26,0,0,0,1.43-.45,8.71,8.71,0,0,0,1.42-.76,4.26,4.26,0,0,0,.5-.32,9.45,9.45,0,0,0,.89-.81,2.45,2.45,0,0,0,1,.29,1.12,1.12,0,0,0,.61-.12,3.42,3.42,0,0,0,.52-.4c.25-.26.5-.51.72-.76s.28-.3.44-.44a.52.52,0,0,1,.22-.18,1.46,1.46,0,0,1-.08.27,11.4,11.4,0,0,0-.38,1.12,8.23,8.23,0,0,0-.25,1.13,6.17,6.17,0,0,0-.06,1,1.68,1.68,0,0,0,.2.74.85.85,0,0,0,.52.47,2.37,2.37,0,0,0,1.16.1.67.67,0,0,0,.38-.17,3.49,3.49,0,0,0,.36-.42,5,5,0,0,0,.53-.8c.15-.24.29-.5.44-.76l.13.15a2,2,0,0,0,1.35.5,3.78,3.78,0,0,0,1.43-.16,6.58,6.58,0,0,0,1.59-.81,2.23,2.23,0,0,0,.19.69.68.68,0,0,0,.14.22l.29.23a1.42,1.42,0,0,0,.45.27,4.4,4.4,0,0,0,1,.22,2.93,2.93,0,0,0,.72,0,8.78,8.78,0,0,0,3.41-1.86l.31-.25a2.43,2.43,0,0,0,0,.66,1.32,1.32,0,0,0,.27.61,1.83,1.83,0,0,0,.91.59,5.4,5.4,0,0,0,2.63.18,7.69,7.69,0,0,0,1.45-.45,9,9,0,0,0,1.45-.76,3.68,3.68,0,0,0,.51-.32,10,10,0,0,0,2.11-2.28C176.05,251.94,175.18,252,175,252.28Zm-30.93.06.36-.3.59-.5a2,2,0,0,1,.27-.17c.12-.08.27-.13.38-.22a1.6,1.6,0,0,1,.48-.2A3.2,3.2,0,0,1,145,252a3.77,3.77,0,0,1-1.21.59A1.75,1.75,0,0,1,144,252.34Zm25.43,0,.36-.3.61-.5a2,2,0,0,1,.27-.17c.12-.08.27-.13.39-.22a1.6,1.6,0,0,1,.48-.2,3.15,3.15,0,0,1-1.14,1.09,4,4,0,0,1-1.24.59A1.82,1.82,0,0,1,169.47,252.34Zm57.26-1.25a8.88,8.88,0,0,1-.5.9c-.3.43-.56.87-.86,1.3s-.57.82-.84,1.23c-.68,1-1,1.47-1.33,1.59,0,0,0,0,0,0a3.62,3.62,0,0,1-.18-.79,4.33,4.33,0,0,1,.17-1.55c.07-.3.14-.59.23-.87s.28-.75.4-1.13l.3-.8c.19-.6-.73-1.1-1.66-.62l-.78.48c-.66.48-1.29,1-1.88,1.45a16.3,16.3,0,0,0-1.52,1.46s0,0-.06.05-.09-.09-.07-.13c0-.19.1-.36.14-.53a3,3,0,0,1,.08-.51c0-.19.23-1,.25-1a.86.86,0,0,1,.28-.35,16.6,16.6,0,0,0,1.39-1.12,15.31,15.31,0,0,0,1.2-1.22,11.15,11.15,0,0,0,1.26-1.75,6.62,6.62,0,0,0,.5-.9,4,4,0,0,0,.51-1.58,1.42,1.42,0,0,0-.13-.78.36.36,0,0,0-.25-.16,4.07,4.07,0,0,0-.71-.16,3.08,3.08,0,0,0-1.24.13.08.08,0,0,1-.05,0,3.5,3.5,0,0,0-1,.69,7.05,7.05,0,0,0-1.21,1.5c-.13.24-.29.51-.39.73a7,7,0,0,0-.37.72c-.05.09-.05.18-.1.26a8.7,8.7,0,0,0-.54,1.16c-.1.28-.2.55-.33.83s-.27.8-.36,1.19a7.42,7.42,0,0,0-.33,1.11c0,.1-.07.26-.12.47l-1.4,1.19a7.35,7.35,0,0,1-.71.57c-.42.31-.92.61-1.4.91a5.29,5.29,0,0,1-.86.41,3.13,3.13,0,0,1-.9.23.38.38,0,0,1-.28-.18.8.8,0,0,0-.12-.18,1.69,1.69,0,0,1-.2-.51,3.06,3.06,0,0,1,0-.74,4,4,0,0,1,.25-1c.11-.23.25-.47.37-.7a7.54,7.54,0,0,1,.79-1c.17-.19.41-.35.61-.54a1.25,1.25,0,0,1,.33-.18.63.63,0,0,1,.25.16,1.26,1.26,0,0,1,.35.58,3.07,3.07,0,0,0,.22.38.67.67,0,0,0,.4.26.55.55,0,0,0,.42,0c.18-.06.27-.14.24-.26s0-.1,0-.15a.7.7,0,0,0-.1-.43,1,1,0,0,1-.13-.27,1.52,1.52,0,0,0-.4-.49,2.36,2.36,0,0,0-1.16-.4,3.71,3.71,0,0,0-1.06,0,.43.43,0,0,0-.21.06,3.58,3.58,0,0,0-.83.44,4.8,4.8,0,0,0-1,1,4.52,4.52,0,0,0-.34.46,2.7,2.7,0,0,1-.18.22c-.24.32-.51.64-.75,1l-.45.55a11.33,11.33,0,0,1-.91,1.06c-.15.16-.36.32-.54.48s-.06.05-.13,0v-.05c.07-.31.13-.61.19-.93a3.61,3.61,0,0,1,.12-.55c.09-.27.21-.54.33-.81a10.33,10.33,0,0,1,.57-1.22c.18-.34.37-.69.52-1a.89.89,0,0,0,.09-.29c0-.08,0-.15-.15-.2l-.73-.18a.38.38,0,0,0-.21,0,.84.84,0,0,0-.48.25.53.53,0,0,0-.12.15.42.42,0,0,1-.13.07,3.89,3.89,0,0,0-.42-.19,2.39,2.39,0,0,0-1.36-.1,2.82,2.82,0,0,0-1.18.49,2.9,2.9,0,0,0-.51.47,3.91,3.91,0,0,0-.51.59A4.45,4.45,0,0,0,202,253c-.24.51-.4,1-.24,1.27l0,0a6.74,6.74,0,0,1-1.24.78,6.06,6.06,0,0,1-2.08.68,4.8,4.8,0,0,1-.67,0,.74.74,0,0,1-.51-.15,1.25,1.25,0,0,0-.12-.17,1.24,1.24,0,0,1-.21-.77c0-.16,0-.29,0-.44a2.38,2.38,0,0,1,.36-.84s0,0,.06,0l.18-.05c.3-.09.61-.17.91-.27.48-.19.9-.4,1.33-.62a2.33,2.33,0,0,0,.45-.29,4.21,4.21,0,0,0,.93-.84,1.57,1.57,0,0,0,.31-.6c0-.19-.09-.3-.31-.4a.58.58,0,0,0-.21-.07l-.39-.08a1.6,1.6,0,0,0-.69,0,4.2,4.2,0,0,0-1.15.3l-.54.23c-.22.12-.4.25-.61.37l-.27.19c-.21.18-.42.35-.6.53a5.61,5.61,0,0,0-.64.66,6.54,6.54,0,0,0-.48.69l-1.11.24c-.71.15-1.38.32-2.05.47-.3-.13-.53-.3-.8-.43s-.8-.35-1.24-.51c-.24-.08-.51-.14-.78-.2,0,0-.09,0-.15-.06a1,1,0,0,0,.43-.2l.1,0c.18-.07.4-.16.58-.25a5,5,0,0,1,.56-.31l.62-.32c.38-.21.78-.42,1.18-.62a1.36,1.36,0,0,0,.25-.16l.56-.32c.19-.13.46-.21.59-.38l.07,0a6.31,6.31,0,0,0,.74-.47c.19-.11.32-.26.51-.38a6.4,6.4,0,0,0,.78-.65,7.84,7.84,0,0,0,.77-.9,1.45,1.45,0,0,0,.28-.76c0-.11,0-.19,0-.29a1.13,1.13,0,0,0-.18-.6,1.89,1.89,0,0,0-.9-.8l-.06,0a3.68,3.68,0,0,0-.44-.17c-.18-.07-.42-.12-.63-.18a8.65,8.65,0,0,0-1.77-.2,9.29,9.29,0,0,0-1.76.15c-.55.09-1.1.2-1.65.32-.25.06-.52.11-.77.18l-1,.34c-.49.18-.93.38-1.39.57-.65.31-1.27.65-1.86,1a12.57,12.57,0,0,0-1.79,1.32,18.12,18.12,0,0,0-1.33,1.28s0,.05-.09.05a.17.17,0,0,1,0-.17c0-.23.11-.46.15-.7a8.82,8.82,0,0,0,.2-.89c.11-.42.19-.83.3-1.25a.51.51,0,0,0-.05-.29,2.89,2.89,0,0,0-.6-.12.78.78,0,0,0-.36,0,1.3,1.3,0,0,0-.25.14,4.68,4.68,0,0,0-.33.49,9.89,9.89,0,0,0-.45,1.21,3.05,3.05,0,0,0-.17.51c-.15.51-.26,1-.41,1.51,0,.13-.07.25-.11.38s-.11.58-.19.86-.14.5-.19.75-1.29,5.38-1.34,5.7a1.21,1.21,0,0,1,0,.19c0,.16,0,.31,0,.48s0,.19.2.26a.87.87,0,0,0,.51.08l.39,0c.12,0,.22,0,.25-.11a1.93,1.93,0,0,1,.13-.21,8.16,8.16,0,0,0,.34-.81c.07-.25,1.35-5.26,1.37-5.51a.28.28,0,0,1,.06-.14,2.85,2.85,0,0,1,.33-.58,6.84,6.84,0,0,1,.81-1.09,8.43,8.43,0,0,1,1-1.06c.28-.27.57-.53.85-.78l.29-.22.5-.38c.28-.17.56-.34.84-.53a11.74,11.74,0,0,1,1.15-.65,12.9,12.9,0,0,1,1.18-.57c.3-.12.61-.25.95-.37s.68-.24,1-.34.83-.21,1.26-.29a9.88,9.88,0,0,1,1.67-.24,5.89,5.89,0,0,1,1.57.07,1.15,1.15,0,0,1,.82.49,1.49,1.49,0,0,1,.22,1.07c0,.1-.07.2-.1.3a4.84,4.84,0,0,1-1.16,1.36c-.25.19-.47.39-.75.58s-.28.22-.44.32-.47.33-.74.47-.53.34-.81.49-.59.33-.87.48-.9.45-1.31.71l0,0-1.49.73-.33.15a.26.26,0,0,0-.17.28s0,.05.06.09a1.51,1.51,0,0,0,.71.27c.27,0,.54.06.84.09a2.41,2.41,0,0,1,.78.16,4.74,4.74,0,0,1,1.21.62c.12.09.2.2.32.3l-.09.05-1.51.48c-.49.18-1,.36-1.42.56l-1.23.57a16.87,16.87,0,0,0-2.12,1.21c-.31.24-.59.48-.85.72a5.15,5.15,0,0,0-.86,1,1.61,1.61,0,0,0-.29.87,1.17,1.17,0,0,0,.45.7,1.92,1.92,0,0,0,.5.24l.54.11a6.77,6.77,0,0,0,2.24.09,11.56,11.56,0,0,0,2.62-.59l.19-.06c.37-.12.74-.27,1.11-.4.12-.05.18-.11.31-.17l.18-.1a4.27,4.27,0,0,0,.68-.32c.37-.2.63-.45,1-.65,0,0,0,0,.07-.07l.19-.18a3.33,3.33,0,0,0,.57-.62,2,2,0,0,0,.37-.87,4.41,4.41,0,0,0,0-.63,2.63,2.63,0,0,0-.4-1,4.64,4.64,0,0,0-.63-.75s0,0-.06-.08l.86-.22,1.46-.33a2.93,2.93,0,0,0-.1.37,2.58,2.58,0,0,0,0,.68,1.34,1.34,0,0,0,.27.6,1.75,1.75,0,0,0,.9.59,5.29,5.29,0,0,0,2.63.18,7.47,7.47,0,0,0,1.45-.45,8.62,8.62,0,0,0,1.45-.76,4.36,4.36,0,0,0,.48-.29l.18,0a1.58,1.58,0,0,0,.81.06A4.28,4.28,0,0,0,205,254l.15-.1a1.57,1.57,0,0,0,0,.16,2.74,2.74,0,0,0-.09.84,1.82,1.82,0,0,0,.15.69.73.73,0,0,0,.19.34,1.34,1.34,0,0,0,1.14.31,4.83,4.83,0,0,0,2.12-1.55l.29-.37v.12a2.19,2.19,0,0,0,.24,1,.74.74,0,0,0,.15.21l.31.23a1.74,1.74,0,0,0,.49.25,5,5,0,0,0,1.06.19,2.46,2.46,0,0,0,.76,0,9.22,9.22,0,0,0,3.54-2c.24-.17.44-.36.68-.54l.23-.2h0c-.07.34-.1.67-.14,1s0,.54-.08.81a1.29,1.29,0,0,0,.1.84,1.43,1.43,0,0,0,1.33,0c.06,0,.12-.07.14-.13a.36.36,0,0,1,.11-.22,6.37,6.37,0,0,1,.39-.73c.17-.23.33-.48.49-.69a5.64,5.64,0,0,1,.72-.83,8,8,0,0,1,.65-.65c.22-.22.51-.44.76-.65s.6-.48.94-.73a2.7,2.7,0,0,1,.32-.19v.06c-.07.19-.14.39-.19.56s-.13.31-.21.45a2.35,2.35,0,0,1-.14.52,6.82,6.82,0,0,0-.38,1.59,2.36,2.36,0,0,0,.09,1.12c.07.08.07.15.11.21a1.46,1.46,0,0,0,.43.52,2.14,2.14,0,0,0,2.25,0,4.9,4.9,0,0,0,.44-.48,7.64,7.64,0,0,0,.69-.86c.22-.31.4-.64.62-.94.35-.5.71-1,1-1.5a5.9,5.9,0,0,0,.4-.69,6.84,6.84,0,0,0,.44-.9C227.8,250.77,226.92,250.77,226.73,251.09ZM219.07,250c.15-.4.3-.83.48-1.24s.27-.69.43-1,.25-.58.41-.86.38-.61.53-.91a1.17,1.17,0,0,0,.16-.28,6,6,0,0,1,.89-1,1.55,1.55,0,0,1,.45-.36c.1,0,.1,0,.1.07a2.58,2.58,0,0,1,0,.68,7.06,7.06,0,0,1-.74,1.74,8.84,8.84,0,0,1-.64,1.11,11.64,11.64,0,0,1-.91,1.14l-.95,1-.17.13s0,0-.06,0A.13.13,0,0,0,219.07,250ZM192,257.14a4.41,4.41,0,0,1-.8.89c-.32.25-.69.47-1,.7l-.56.31-.1.07-1,.38a10.91,10.91,0,0,1-1.81.54,6.14,6.14,0,0,1-1.07.13h-.36a1,1,0,0,1-.42-.12.73.73,0,0,1-.42-.61,1.15,1.15,0,0,1,.22-.71,4,4,0,0,1,.83-1,5.7,5.7,0,0,1,.82-.68,13.64,13.64,0,0,1,1.4-.84c.34-.19.74-.35,1.11-.52a5,5,0,0,1,.65-.27l.83-.31c.37-.12.74-.27,1.14-.37a1.62,1.62,0,0,0,.34-.1s.11.09.11.12a3.43,3.43,0,0,1,.3.72,5.31,5.31,0,0,1,.11.8A1.78,1.78,0,0,1,192,257.14Zm6.16-4.82.36-.31.6-.5a2,2,0,0,1,.27-.17c.12-.08.27-.13.4-.21a1.36,1.36,0,0,1,.48-.21,3.11,3.11,0,0,1-1.15,1.09,3.85,3.85,0,0,1-1.24.59A1.48,1.48,0,0,1,198.17,252.32Zm8-.62a3.2,3.2,0,0,1-.33.67,2.05,2.05,0,0,1-.55.55,6.14,6.14,0,0,1-1.11.79l-.55.29a.33.33,0,0,0-.12.05.46.46,0,0,1,0-.35,8.62,8.62,0,0,1,.43-.86,4.16,4.16,0,0,1,.51-.7c.15-.19.3-.39.48-.58a3.45,3.45,0,0,1,.76-.7l.12-.05.06,0C206.1,251.11,206.28,251.4,206.13,251.7Zm-95-24.64h14v1.21h-5.18v13h-3.66v-13h-5.18Zm29.09,14.23-5.32-6.82a6.44,6.44,0,0,0,1.39-.58,5.08,5.08,0,0,0,1.08-.81,3.36,3.36,0,0,0,.7-1,2.63,2.63,0,0,0,.25-1.14,3.29,3.29,0,0,0-1.45-2.78,5.36,5.36,0,0,0-1.82-.81,9.6,9.6,0,0,0-2.54-.29h-5.61v14.23h3.66v-6.45h.65l5,6.45Zm-6-9.19a2.39,2.39,0,0,1-.66.82,3,3,0,0,1-1,.51,4.08,4.08,0,0,1-1.24.19h-.8v-5.18H132a2.38,2.38,0,0,1,1,.19,2.08,2.08,0,0,1,.77.53,2.37,2.37,0,0,1,.51.82,2.63,2.63,0,0,1,.19,1A2.42,2.42,0,0,1,134.21,232.1Zm6.7,6.17a5.17,5.17,0,0,1-.44-2.1v-9.11h3.68v9.14a4.64,4.64,0,0,0,.26,1.56,3.85,3.85,0,0,0,.77,1.26,3.65,3.65,0,0,0,1.21.86,3.94,3.94,0,0,0,1.6.31,3.86,3.86,0,0,0,1.59-.31,3.75,3.75,0,0,0,1.21-.86,3.83,3.83,0,0,0,.76-1.26,4.41,4.41,0,0,0,.27-1.56v-9.14h2.31v9.14a5.63,5.63,0,0,1-.39,2.09,4.71,4.71,0,0,1-1.23,1.72,5.9,5.9,0,0,1-2.15,1.17,10.14,10.14,0,0,1-3.16.43,8.85,8.85,0,0,1-2.9-.43,6.22,6.22,0,0,1-2.11-1.17A5,5,0,0,1,140.91,238.27Zm15.47-1.06a6.93,6.93,0,0,1-.66-3.05,7.69,7.69,0,0,1,.28-2,6.68,6.68,0,0,1,.82-1.8,6.79,6.79,0,0,1,1.29-1.5,7.94,7.94,0,0,1,1.73-1.13,8.67,8.67,0,0,1,2.1-.72,11.25,11.25,0,0,1,2.43-.25,9.28,9.28,0,0,1,2.37.28,8.07,8.07,0,0,1,1.95.8,7.49,7.49,0,0,1,1.56,1.23,9.69,9.69,0,0,1,1.22,1.55l-1.56,1a10.7,10.7,0,0,0-1-1.21,7.29,7.29,0,0,0-1.18-1,5.73,5.73,0,0,0-1.33-.67,4.12,4.12,0,0,0-1.44-.25,5.26,5.26,0,0,0-2,.37,4.62,4.62,0,0,0-1.64,1.09,5.1,5.1,0,0,0-1.12,1.78,6.56,6.56,0,0,0-.42,2.44,6.36,6.36,0,0,0,.44,2.44,5.51,5.51,0,0,0,1.17,1.78,4.87,4.87,0,0,0,1.68,1.09,5.34,5.34,0,0,0,2,.37,4,4,0,0,0,1.47-.26,5.41,5.41,0,0,0,1.27-.69,7.44,7.44,0,0,0,1.1-1,13.16,13.16,0,0,0,1-1.22l1.53,1.07a8.46,8.46,0,0,1-1.19,1.46,8.33,8.33,0,0,1-1.57,1.24,8,8,0,0,1-1.9.86,7,7,0,0,1-2.17.32,11.44,11.44,0,0,1-3.55-.53,8.54,8.54,0,0,1-2.81-1.52A6.92,6.92,0,0,1,156.38,237.21Zm27.49,4.08-7-6.1v6.1h-3.68V227.06h3.68v5.35l6.63-5.35h2.84l-7.47,6,9.48,8.21Zm12.87-2.19a1.6,1.6,0,0,0,.22-.85,2,2,0,0,0-.34-1.13,3.86,3.86,0,0,0-.91-.89,9,9,0,0,0-1.28-.76l-1.46-.7c-.5-.24-1-.48-1.47-.74a7.52,7.52,0,0,1-1.28-.86,4.18,4.18,0,0,1-.9-1.08,2.72,2.72,0,0,1-.34-1.38,3.3,3.3,0,0,1,.39-1.58,3.62,3.62,0,0,1,1.13-1.25,5.51,5.51,0,0,1,1.81-.83,9,9,0,0,1,2.43-.3,6.54,6.54,0,0,1,2,.3,5.79,5.79,0,0,1,1.61.81,5.06,5.06,0,0,1,1.18,1.22,5.86,5.86,0,0,1,.73,1.51H198a7.26,7.26,0,0,0-.47-1,3,3,0,0,0-.65-.81,2.89,2.89,0,0,0-.93-.56,3.88,3.88,0,0,0-1.31-.2,3.55,3.55,0,0,0-1.21.18,2.43,2.43,0,0,0-.8.45,1.58,1.58,0,0,0-.43.62,1.77,1.77,0,0,0-.13.67,1.63,1.63,0,0,0,.35,1,3.7,3.7,0,0,0,.93.86,11.5,11.5,0,0,0,1.32.76c.49.24,1,.49,1.51.73s1,.51,1.51.77A8.69,8.69,0,0,1,199,235a4,4,0,0,1,.93,1.07,2.52,2.52,0,0,1,.35,1.33,3.57,3.57,0,0,1-.37,1.62,3.93,3.93,0,0,1-1.12,1.3,5.62,5.62,0,0,1-1.84.87,9.15,9.15,0,0,1-2.52.31,8.23,8.23,0,0,1-2.35-.3,5.3,5.3,0,0,1-1.72-.83,4,4,0,0,1-1.12-1.26,4.77,4.77,0,0,1-.57-1.6h2.54a4.6,4.6,0,0,0,.38,1,3,3,0,0,0,.64.8,2.84,2.84,0,0,0,.93.54,3.59,3.59,0,0,0,1.24.19,4.88,4.88,0,0,0,.93-.09,2.9,2.9,0,0,0,.81-.31A1.64,1.64,0,0,0,196.74,239.1ZM206,228.27h-5.18v-1.21h14v1.21h-5.17v13H206Zm25.63,2a6.75,6.75,0,0,0-1.32-1.46,8.3,8.3,0,0,0-1.72-1.11,9.89,9.89,0,0,0-2.05-.7,10.77,10.77,0,0,0-2.31-.24,10.9,10.9,0,0,0-2.31.24,10,10,0,0,0-2,.7,8.26,8.26,0,0,0-1.72,1.1,7.38,7.38,0,0,0-1.33,1.47,6.79,6.79,0,0,0-1.14,3.81,7,7,0,0,0,2.47,5.42,8,8,0,0,0,1.72,1.14,9,9,0,0,0,2,.73,10.29,10.29,0,0,0,2.31.25,10.77,10.77,0,0,0,2.31-.24,9.35,9.35,0,0,0,2.05-.71,8.38,8.38,0,0,0,1.72-1.13,7,7,0,0,0,1.32-1.51,6.87,6.87,0,0,0,.85-1.84,7.29,7.29,0,0,0,.3-2.12,6.74,6.74,0,0,0-.3-2A6.58,6.58,0,0,0,231.62,230.26Zm-3.21,6.34a6.36,6.36,0,0,1-.86,2,4.2,4.2,0,0,1-1.4,1.32,4.22,4.22,0,0,1-3.87,0,4.2,4.2,0,0,1-1.4-1.32,6.35,6.35,0,0,1-.85-2,10.53,10.53,0,0,1-.29-2.53,10.08,10.08,0,0,1,.29-2.47,6,6,0,0,1,.85-1.93,4,4,0,0,1,1.4-1.26,4.39,4.39,0,0,1,3.87,0,4,4,0,0,1,1.4,1.26,6,6,0,0,1,.86,1.93,10.08,10.08,0,0,1,.29,2.47A10.53,10.53,0,0,1,228.41,236.6Zm17.12-7.28a3.83,3.83,0,0,0-1.28-1.25,6.14,6.14,0,0,0-1.9-.76,10.42,10.42,0,0,0-2.36-.25h-5.21v14.23h3.69v-6.22h2.16a7.66,7.66,0,0,0,2-.25,5.26,5.26,0,0,0,1.72-.75,4,4,0,0,0,1.21-1.24,3.28,3.28,0,0,0,.46-1.76A3.24,3.24,0,0,0,245.53,229.32ZM242,232.13a2.64,2.64,0,0,1-.46.86,2.28,2.28,0,0,1-.78.58,2.61,2.61,0,0,1-1.09.22h-1.19v-5.35h1.09a2.83,2.83,0,0,1,1,.18,2.34,2.34,0,0,1,.82.52,2.16,2.16,0,0,1,.55.84,2.9,2.9,0,0,1,.2,1.14A3.38,3.38,0,0,1,242,232.13Z" transform="translate(-19.57 -190.51)"/><path class="cls-2" d="M55.5,243.56v-1.78A1.77,1.77,0,0,1,57.27,240a1.74,1.74,0,0,1,.39.05c.15-1.69.24-3.2.25-4.44a37.8,37.8,0,0,0-4-17s-4.57,5.16-6.67,15.54c-1.59,7.82-1.6,26-1.53,33.17,0,0,0,1,0,1s7.74.37,7.74.37l.09-1.19s.59-5.46.91-5.15c.86-5,1.89-11.38,2.59-17A1.78,1.78,0,0,1,55.5,243.56Z" transform="translate(-19.57 -190.51)"/><path class="cls-3" d="M98.66,240a1.75,1.75,0,0,0-1.59,1c-1-7.22-3.94-15-4.58-15.83s-2-1-5.64-1.55a71.88,71.88,0,0,0-8.64-.54l-.22,0-.23,0a71.88,71.88,0,0,0-8.64.54c-3.63.54-4.94.7-5.64,1.55s-3.56,8.64-4.58,15.88a1.78,1.78,0,0,0-1.24-1c-.15,1.61-.34,3.39-.58,5.26h.19a1.75,1.75,0,0,0,1.25-.51,94.41,94.41,0,0,0,.25,13.79l.39.78-1.32-.15-.55.2a5,5,0,0,0,.12,2.11,1.35,1.35,0,0,0,1.21.9c.17.06.31,1,.7,1.28a2.87,2.87,0,0,0,1.11.31l.13,3a31.83,31.83,0,0,0,5.22,2.53,3.88,3.88,0,0,0,.87-2.69l-.11-2.53.3-.11c1.65,0,3.25.06,4.72.1s2.79.29,3.88.39V265s.74,0,2.56-.09c1.81.11,2.55.09,2.55.09v-.28c1.14-.1,2.5-.24,4.11-.42l3.85-.07h.45l-.12,2.65a4,4,0,0,0,.55,2.25,31.66,31.66,0,0,0,5.58-3l.08-1.67a1.27,1.27,0,0,0,.21-.47,2.07,2.07,0,0,0,.66-.23c.38-.27.52-1.22.69-1.28a1.35,1.35,0,0,0,1.22-.9,5,5,0,0,0,.11-2.11l-.54-.2-.53.06.35-.69a94,94,0,0,0,.25-13.76,1.75,1.75,0,0,0,1.21.48,1.78,1.78,0,0,0,1.78-1.77v-1.78A1.78,1.78,0,0,0,98.66,240ZM79.14,227.43l12.5.3s.72.55,2.16,5c1.62,5,1.54,7.49,1.54,7.49L79.14,240Zm-16.75,5.48c1.44-4.47,2.16-5,2.16-5l12.5-.31v12.58l-16.21.23S60.76,237.92,62.39,232.91Zm-1.88,15.51A1.59,1.59,0,1,1,62.1,250,1.59,1.59,0,0,1,60.51,248.42Zm3.79,8.28A2.74,2.74,0,1,1,67,254,2.74,2.74,0,0,1,64.3,256.7Zm12.9,2.8c0-.06-.43-6-5.78-12.29-4-4.73-11.33-4-11.41-4l0-.38c.08,0,7.57-.74,11.74,4.14,5.44,6.36,5.88,12.46,5.88,12.52Zm-1.85-11.93a3,3,0,1,1,3,3A3,3,0,0,1,75.35,247.57Zm16.16,9.13A2.74,2.74,0,1,1,94.25,254,2.75,2.75,0,0,1,91.51,256.7Zm2-6.7a1.59,1.59,0,1,1,1.59-1.58A1.58,1.58,0,0,1,93.48,250Zm3.15-6.8c-.07,0-7.36-.71-11.4,4-5.36,6.27-5.78,12.23-5.79,12.29l-.39,0c0-.06.44-6.16,5.88-12.52,4.18-4.89,11.67-4.15,11.74-4.14Z" transform="translate(-19.57 -190.51)"/></svg>